<?xml version="1.0" encoding="UTF-8"?>
<svg id="SVGRoot" width="500" height="341.29" version="1.1" viewBox="0 0 500 341.2919" xmlns="http://www.w3.org/2000/svg" xmlns:cc="http://creativecommons.org/ns#" xmlns:dc="http://purl.org/dc/elements/1.1/" xmlns:rdf="http://www.w3.org/1999/02/22-rdf-syntax-ns#"><metadata><rdf:RDF><cc:Work rdf:about=""><dc:format>image/svg+xml</dc:format><dc:type rdf:resource="http://purl.org/dc/dcmitype/StillImage"/><dc:title/></cc:Work></rdf:RDF></metadata><g transform="matrix(1 0 0 1 2.8691 -1.7247)"><path d="m334.96 6.3843c-1.5807 0.0161-3.1525 0.0946-4.7159 0.24198-13.526 1.2681-27.649 6.4008-37.61 15.531-11.148 10.218-19.383 22.98-23.082 38.733-7.2342 0.6771-11.436 1.0799-16.998 3.9016-5.7566 2.9204-11.473 8.5453-15.214 12.667-8.6209-7.3973-21.212-11.58-30.5-9.3556-10.034 2.4028-17.76 6.9936-23.249 15.815-5.6066 9.0106-6.569 19.9-5.2194 29.688 0.92486 6.709 4.4375 12.993 8.6074 18.074 4.1437 5.0491 10.171 8.4631 16.661 10.693 7.481 1.9019 14.351 0.22138 20.58-1.4815 2.6304 6.4853 6.4962 16.96 11.698 22.304 7.4685 7.6721 14.308 13.845 24.884 15.874 13.662 2.6212 28.934-0.55577 41.108-7.2201 7.639-4.1817 14.421-12.11 18.519-19.049 5.3322 1.2714 10.774 1.2114 16.156 0.91266 13.439-0.74611 25.39-4.9334 36.055-13.048 3.4209-2.6025 9.8871-8.5618 12.568-11.859 7.1495 6.161 14.728 11.788 23.59 13.991 9.3499 2.3242 21.147 3.5236 30.962-0.033l41.328-63.496c-1.0696-12.818-7.174-24.036-15.389-33.675-8.3048-9.7435-23.049-18.942-35.756-20.498-15.306-1.874-26.577 2.9442-40.178 12.865-5.4581-8.3332-13.08-18.803-22.628-23.69-9.762-4.9973-21.113-7.9981-32.177-7.8848z" color="#000000" color-rendering="auto" dominant-baseline="auto" fill="#aebcc6" image-rendering="auto" shape-rendering="auto" solid-color="#000000" style="font-feature-settings:normal;font-variant-alternates:normal;font-variant-caps:normal;font-variant-ligatures:normal;font-variant-numeric:normal;font-variant-position:normal;isolation:auto;mix-blend-mode:normal;shape-padding:0;text-decoration-color:#000000;text-decoration-line:none;text-decoration-style:solid;text-indent:0;text-orientation:mixed;text-transform:none;white-space:normal"/></g><g transform="matrix(1 0 0 1 2.8691 -1.7247)"><path d="m-2.872 267.78 76.684-46.716 30.502 11.305 80.004-45.209 53.515 17.546 93.088-51.514 104.53 29.926 4.3816-101.57c12.666-8.0204 29.259-5.5507 42.127-5.0061l7.3436 122 7.8243 144.47h-500z" fill="#00457c" fill-rule="evenodd"/></g><g transform="matrix(1 0 0 1 2.8691 -1.7247)" fill="#fff" fill-rule="evenodd"><path d="m330.92 171.34-146.6 66.696v-36.766l-110.54 51.941v-21.794l-71.748 38.617 1.0497 68.421 327.84-11.221zm-23.792 73.074v45.601l-122.81 9.51v-31.626zm-134.64 25.745v30.283l-98.714 7.645v-19.051zm-105.64 20.202v18.264l-55.373 4.2861v-11.963z"/><path d="m443.3 85.802c6.6851-4.8605 12.32-3.9595 18.481-3.8192l-0.69976 108.47-19.386-5.5501z"/></g><g transform="matrix(1 0 0 1 2.8691 -1.7247)"><path d="m334.68 1.7259c-1.603 0.0161-3.1971 0.098-4.783 0.24841-13.718 1.3016-28.042 6.5698-38.145 15.941-11.307 10.488-20.161 22.887-23.911 39.054-7.3371 0.69516-12.128 2.4653-18.243 5.5282-5.0036 2.506-9.1267 6.2315-12.921 10.462-2.6668-2.3848-5.6709-4.3744-8.8906-5.8501-4.8575-2.2264-10.103-3.2653-15.696-3.0335-1.8642 0.0772-5.5178 0.33632-7.3511 0.80474-10.146 2.5922-18.012 9.2096-23.579 18.264-5.6863 9.2486-6.6624 20.426-5.2938 30.472 0.9381 6.8862 4.5008 13.336 8.7297 18.551 4.2027 5.1823 9.8142 9.702 16.396 11.991 7.5872 1.9519 15.057 2.2585 21.375 0.51084 2.6678 6.6563 6.5883 14.36 11.865 19.846 7.5746 7.8744 17.055 15.314 27.781 17.396 13.857 2.6904 29.345-0.57035 41.693-7.4106 7.7476-4.2921 14.626-12.429 18.782-19.552 5.408 1.3051 10.927 1.9791 16.385 1.6725 13.63-0.76584 27.447-6.2723 38.264-14.601 3.4695-2.6714 6.5147-5.7406 9.2335-9.1251 7.2511 6.3236 14.937 11.363 23.925 13.625 9.4828 2.3857 19.215 2.1983 29.17-1.452l0.45836-6.7423c-9.7562 4.22-19.492 4.7379-28.813 2.2988-8.1733-2.1388-14.521-6.5567-21.2-12.624 3.0089-4.5307 5.5996-9.4794 7.9005-14.755l-8.5373-3.7263c-4.6492 10.659-10.949 19.484-19.548 26.158-9.1324 7.0876-20.544 12.248-32.064 13.215-10.726 0.90051-21.72-2.192-31.49-7.1552l-3.3379 5.5947c4.0046 2.1395 8.2559 4.0429 12.641 5.5737-4.1318 6.0021-11.004 13.18-17.872 16.952-8.641 4.7464-19.208 7.1556-28.985 5.8851-10.526-1.3679-20.73-6.9242-28.551-14.1-5.672-5.2044-9.4841-11.307-12.397-19.198 3.9647-2.1063 7.1789-4.8102 9.4784-7.1342l-3.6668-3.5339c-3.1264 3.776-7.3175 6.4962-12.676 8.0194-5.9469 1.6903-12.697 1.4144-18.537-0.6158-5.1597-1.7939-9.7155-5.5135-13.184-9.7339-4.0989-4.9877-7.4556-11.11-8.2643-17.515-1.11-8.791 0.32034-18.589 5.0139-26.105 4.0118-6.424 10.917-11.461 18.17-13.642 7.7141-2.32 14.405-1.2841 20.797 1.4415 5.1577 2.2448 7.9438 4.7429 11.672 9.6849 3.9066-5.9508 9.8745-10.518 16.238-13.772 6.0817-3.1091 13.646-5.244 19.975-4.5695 0 0 0.48551-5.5311 1.3541-8.1769 4.2698-13.007 11.767-22.505 21.441-31.07 8.8498-7.8355 21.056-12.396 32.833-13.394 11.475-0.97246 23.552 2.0903 33.729 7.4806 8.6886 4.6018 15.41 11.447 21.462 20.23l3.1735 6.4869s5.9097-4.8908 9.0971-7.0117c11.949-7.9513 24.293-9.5967 36.416-7.1412 11.714 2.3726 22.407 10.6 29.726 20.049 5.825 7.5188 8.6494 16.117 9.5379 26.892l10.567-0.94119c-0.46633-13.033-5.3629-26.025-13.744-36.087-8.1441-9.7777-19.627-18.388-33.253-20.531-15.367-2.417-29.966 0.16786-43.76 10.35-5.5357-8.5532-14.27-17.268-23.953-22.284-9.9009-5.1292-21.413-8.2092-32.634-8.0929z" color="#000000" color-rendering="auto" dominant-baseline="auto" fill="#00457c" image-rendering="auto" shape-rendering="auto" solid-color="#000000" style="font-feature-settings:normal;font-variant-alternates:normal;font-variant-caps:normal;font-variant-ligatures:normal;font-variant-numeric:normal;font-variant-position:normal;isolation:auto;mix-blend-mode:normal;shape-padding:0;text-decoration-color:#000000;text-decoration-line:none;text-decoration-style:solid;text-indent:0;text-orientation:mixed;text-transform:none;white-space:normal"/></g></svg>
