<?xml version="1.0" encoding="UTF-8" standalone="no"?>
<!-- Created with Inkscape (http://www.inkscape.org/) -->

<svg
   version="1.1"
   id="svg2"
   width="68.626663"
   height="68.800003"
   viewBox="0 0 68.626663 68.800003"
   sodipodi:docname="mardi.eps"
   xmlns:inkscape="http://www.inkscape.org/namespaces/inkscape"
   xmlns:sodipodi="http://sodipodi.sourceforge.net/DTD/sodipodi-0.dtd"
   xmlns="http://www.w3.org/2000/svg"
   xmlns:svg="http://www.w3.org/2000/svg">
  <defs
     id="defs6" />
  <sodipodi:namedview
     id="namedview4"
     pagecolor="#ffffff"
     bordercolor="#000000"
     borderopacity="0.25"
     inkscape:showpageshadow="2"
     inkscape:pageopacity="0.0"
     inkscape:pagecheckerboard="0"
     inkscape:deskcolor="#d1d1d1" />
  <g
     id="g8"
     inkscape:groupmode="layer"
     inkscape:label="ink_ext_XXXXXX"
     transform="matrix(1.3333333,0,0,-1.3333333,0,68.8)">
    <g
       id="g10"
       transform="scale(0.1)">
      <path
         d="m 247.734,471.484 c 5.567,0.164 9.254,4.852 9.043,12.254 -0.129,3.946 -1.422,7.051 -3.336,8.879 -1.8,1.641 -4.023,2.461 -6.859,2.383 -1.48,-0.059 -2.348,-0.402 -2.594,-0.664 -0.371,-0.391 -0.425,-1.086 -0.394,-2.305 l 0.484,-16.613 c 0.102,-2.996 0.735,-4.023 3.656,-3.934"
         style="fill:#2ea53a;fill-opacity:1;fill-rule:nonzero;stroke:none"
         id="path12" />
      <path
         d="m 278.215,488.809 -0.129,0.019 c -1.453,-2.902 -2.793,-5.781 -4.18,-8.594 l 6.453,-0.675 -2.144,9.25"
         style="fill:#2ea53a;fill-opacity:1;fill-rule:nonzero;stroke:none"
         id="path14" />
      <path
         d="m 430.398,410.879 -0.078,0.098 c -3.035,-1.114 -5.984,-2.297 -8.925,-3.411 l 4.25,-4.89 4.753,8.203"
         style="fill:#2ea53a;fill-opacity:1;fill-rule:nonzero;stroke:none"
         id="path16" />
      <path
         d="m 258.523,38.9844 c -1.074,-3.0781 -2.043,-6.0938 -3.027,-9.0821 l 6.469,0.1954 -3.317,8.8867 h -0.125"
         style="fill:#2ea53a;fill-opacity:1;fill-rule:nonzero;stroke:none"
         id="path18" />
      <path
         d="m 471.328,344.668 -0.051,0.105 c -3.242,-0.027 -6.414,-0.183 -9.547,-0.261 l 2.403,-6.016 7.195,6.172"
         style="fill:#2ea53a;fill-opacity:1;fill-rule:nonzero;stroke:none"
         id="path20" />
      <path
         d="m 19.7617,263.699 10.793,-0.379 c 0.2109,0.496 0.4648,1.36 0.4883,2.235 0.0586,1.523 -0.9063,4.894 -6.5196,5.09 -4.6875,0.164 -6.3281,-2.442 -6.414,-4.993 -0.0274,-0.789 0.1679,-1.297 0.3633,-1.531 0.2382,-0.273 0.664,-0.398 1.289,-0.422"
         style="fill:#2ea53a;fill-opacity:1;fill-rule:nonzero;stroke:none"
         id="path22" />
      <path
         d="m 108.578,418.621 c 1.969,-2.266 3.121,-2.637 5.313,-0.723 4.214,3.665 4.089,9.622 -0.778,15.196 -2.582,2.98 -5.578,4.562 -8.215,4.758 -2.433,0.136 -4.671,-0.645 -6.8082,-2.5 -1.125,-0.977 -1.5546,-1.817 -1.5898,-2.161 -0.0352,-0.535 0.375,-1.113 1.1563,-2.031 l 10.9217,-12.539"
         style="fill:#2ea53a;fill-opacity:1;fill-rule:nonzero;stroke:none"
         id="path24" />
      <path
         d="m 203.91,44.5195 c -1.805,-2.7031 -3.449,-5.4101 -5.148,-8.0547 l 6.332,-1.4062 -1.071,9.4453 -0.113,0.0156"
         style="fill:#2ea53a;fill-opacity:1;fill-rule:nonzero;stroke:none"
         id="path26" />
      <path
         d="m 87.9414,220.371 c 1.3125,0.645 2.3086,1.484 2.9805,2.539 0.6797,1.055 1.1953,2.528 1.582,4.426 0.0586,0.445 0.0977,2.508 0.0977,6.199 v 50.715 c 0,4.195 -0.1993,6.824 -0.5547,7.867 -0.3867,1.028 -1.1367,1.953 -2.2813,2.758 -1.1484,0.801 -2.6836,1.188 -4.6054,1.188 h -1.6914 c -2.6094,-12.278 -4.0469,-24.993 -4.0469,-38.055 0,-13.211 1.4883,-26.074 4.1562,-38.496 h 0.1133 c 1.5078,-0.047 2.918,0.246 4.25,0.859"
         style="fill:#2ea53a;fill-opacity:1;fill-rule:nonzero;stroke:none"
         id="path28" />
      <path
         d="m 261.672,75.7617 c 76.844,0 142.461,47.6363 169.246,114.9413 H 92.418 C 119.211,123.398 184.813,75.7617 261.672,75.7617"
         style="fill:#2ea53a;fill-opacity:1;fill-rule:nonzero;stroke:none"
         id="path30" />
      <path
         d="m 371.672,228.691 c 4.004,6.122 5.996,15.594 5.996,28.465 0,10.356 -1.367,18.645 -4.105,24.824 -2.145,4.844 -4.918,8.149 -8.321,9.907 -2.383,1.218 -6.347,1.804 -11.89,1.785 v -63.008 c 0,-3.34 0.132,-5.391 0.398,-6.133 0.273,-0.754 0.715,-1.34 1.348,-1.738 0.898,-0.574 2.187,-0.891 3.886,-0.891 5.559,0 9.778,2.258 12.688,6.789"
         style="fill:#2ea53a;fill-opacity:1;fill-rule:nonzero;stroke:none"
         id="path32" />
      <path
         d="m 480.598,272.773 c -0.176,-0.5 -0.332,-1.378 -0.293,-2.257 0.093,-1.524 1.367,-4.786 6.968,-4.461 4.7,0.273 6.079,3.027 5.918,5.554 -0.046,0.793 -0.269,1.282 -0.503,1.504 -0.254,0.246 -0.676,0.344 -1.309,0.305 l -10.781,-0.645"
         style="fill:#2ea53a;fill-opacity:1;fill-rule:nonzero;stroke:none"
         id="path34" />
      <path
         d="m 292.688,260.098 c 2.324,0.996 4.16,2.812 5.488,5.429 1.328,2.61 1.988,6.028 1.988,10.243 0,6.093 -1.211,10.609 -3.648,13.515 -2.461,2.91 -6.399,4.387 -11.836,4.387 h -5.434 v -35.086 h 2.902 c 4.7,0 8.196,0.496 10.54,1.512"
         style="fill:#2ea53a;fill-opacity:1;fill-rule:nonzero;stroke:none"
         id="path36" />
      <path
         d="m 178.645,219.512 c 2.449,0.437 4.445,1.66 6.011,3.652 1.578,1.992 3.504,6.102 5.817,12.371 l 24.328,64.348 h 0.945 l 24.414,-66.145 c 2.32,-6.386 4.254,-10.41 5.758,-12.058 1.129,-1.25 2.738,-1.985 4.809,-2.168 V 217.5 h -32.715 v 2.012 h 1.347 c 2.653,0 4.496,0.449 5.575,1.336 0.734,0.644 1.101,1.593 1.101,2.824 0,0.715 -0.113,1.473 -0.297,2.246 -0.07,0.371 -0.566,1.895 -1.515,4.59 l -3.66,10.039 h -23.915 l -2.972,-7.871 c -0.934,-2.676 -1.406,-4.883 -1.406,-6.629 0,-2.285 0.773,-3.996 2.308,-5.09 0.91,-0.652 3.117,-1.133 6.66,-1.445 V 217.5 h -22.593 z m 75.125,0 c 3.203,0 5.375,0.34 6.523,1.035 1.133,0.683 1.934,1.609 2.402,2.723 0.457,1.117 0.696,3.871 0.696,8.253 v 52.508 c 0,4.387 -0.239,7.16 -0.696,8.293 -0.468,1.145 -1.269,2.051 -2.425,2.715 -1.172,0.691 -3.336,1.024 -6.5,1.024 v 2.003 h 31.691 c 8.238,0 14.273,-0.683 18.102,-2.031 3.832,-1.34 6.945,-3.84 9.367,-7.472 2.414,-3.622 3.613,-7.887 3.613,-12.762 0,-5.957 -1.809,-10.879 -5.398,-14.766 -2.317,-2.461 -5.52,-4.316 -9.668,-5.547 l 16.336,-27.179 c 2.097,-3.512 3.605,-5.711 4.492,-6.582 1.355,-1.239 2.922,-1.903 4.715,-2.032 V 217.5 h -21.231 l -22.027,36.672 h -4.516 v -22.649 c 0,-4.382 0.234,-7.136 0.688,-8.281 0.476,-1.152 1.277,-2.051 2.449,-2.715 1.152,-0.683 3.301,-1.015 6.496,-1.015 V 217.5 H 253.77 Z m 73.601,0 h 2.246 c 1.992,0 3.52,0.363 4.571,1.113 1.054,0.742 1.835,1.758 2.335,3.066 0.301,0.852 0.457,3.379 0.457,7.637 v 52.922 c 0,4.195 -0.171,6.824 -0.542,7.867 -0.383,1.059 -1.118,1.977 -2.25,2.758 -1.129,0.801 -2.657,1.188 -4.571,1.188 h -2.246 v 2.003 h 30.356 c 8.125,0 14.636,-1.308 19.578,-3.925 6.047,-3.203 10.617,-8.055 13.742,-14.551 3.101,-6.504 4.668,-13.848 4.668,-22.039 0,-5.664 -0.774,-10.903 -2.309,-15.664 -1.519,-4.778 -3.511,-8.723 -5.957,-11.821 -2.422,-3.101 -5.23,-5.625 -8.426,-7.476 -3.171,-1.887 -7.082,-3.352 -11.668,-4.367 -2.042,-0.489 -5.246,-0.723 -9.628,-0.723 h -30.356 z m 74.77,0 h 2.261 c 1.977,0 3.578,0.398 4.786,1.258 0.878,0.57 1.542,1.543 2.023,2.921 0.359,0.965 0.559,3.516 0.559,7.637 v 52.922 c 0,4.195 -0.2,6.824 -0.559,7.867 -0.359,1.059 -1.121,1.977 -2.258,2.758 -1.109,0.801 -2.637,1.188 -4.551,1.188 h -2.261 v 2.003 h 35.613 v -2.003 h -2.258 c -1.961,0 -3.555,-0.411 -4.754,-1.266 -0.871,-0.57 -1.554,-1.543 -2.058,-2.91 -0.371,-0.989 -0.547,-3.52 -0.547,-7.637 v -52.922 c 0,-4.199 0.183,-6.836 0.574,-7.89 0.383,-1.055 1.133,-1.973 2.246,-2.754 1.121,-0.793 2.629,-1.172 4.539,-1.172 h 2.258 V 217.5 H 402.141 Z M 83.9805,298.066 h 26.8555 l 19.051,-52.851 18.195,52.851 h 27.758 v -2.003 h -2.207 c -2.024,0 -3.633,-0.411 -4.84,-1.278 -0.832,-0.586 -1.508,-1.543 -2.02,-2.883 -0.367,-0.984 -0.546,-3.535 -0.546,-7.652 v -52.922 c 0,-4.199 0.179,-6.836 0.546,-7.89 0.375,-1.055 1.125,-1.973 2.27,-2.754 1.137,-0.793 2.672,-1.172 4.59,-1.172 h 2.207 V 217.5 h -35.61 v 2.012 h 2.219 c 2.008,0 3.614,0.398 4.832,1.258 0.84,0.57 1.508,1.543 2.012,2.921 0.375,0.965 0.566,3.516 0.566,7.637 v 59.797 L 124.023,217.5 h -1.203 l -26.3356,72.852 v -56.817 c 0,-3.965 0.082,-6.406 0.25,-7.324 0.4336,-1.973 1.375,-3.594 2.832,-4.844 1.4566,-1.238 3.7496,-1.855 6.8636,-1.855 V 217.5 H 84.0977 c 0.8476,-3.723 1.7695,-7.41 2.8398,-11.047 H 436.395 c 4.828,16.36 7.523,33.637 7.523,51.555 0,17.926 -2.695,35.199 -7.523,51.562 H 86.9375 c -1.1133,-3.785 -2.0859,-7.621 -2.957,-11.504"
         style="fill:#2ea53a;fill-opacity:1;fill-rule:nonzero;stroke:none"
         id="path38" />
      <path
         d="m 261.672,440.262 c -76.852,0 -142.457,-47.629 -169.2501,-114.93 H 430.918 c -26.797,67.301 -92.402,114.93 -169.246,114.93"
         style="fill:#2ea53a;fill-opacity:1;fill-rule:nonzero;stroke:none"
         id="path40" />
      <path
         d="m 208.816,272.742 -10.5,-27.781 h 20.645 z"
         style="fill:#2ea53a;fill-opacity:1;fill-rule:nonzero;stroke:none"
         id="path42" />
      <path
         d="m 177.773,466.895 -6.078,7.312 -0.113,-0.059 c -0.016,-3.242 0.09,-6.414 0.113,-9.539 l 6.078,2.286"
         style="fill:#2ea53a;fill-opacity:1;fill-rule:nonzero;stroke:none"
         id="path44" />
      <path
         d="m 424.238,97.2188 0.078,0.0781 c -1.378,2.9571 -2.8,5.7691 -4.171,8.6011 l -4.52,-4.668 8.613,-4.0112"
         style="fill:#2ea53a;fill-opacity:1;fill-rule:nonzero;stroke:none"
         id="path46" />
      <path
         d="m 488.113,234.875 -0.117,1.504 c 1.469,0.332 2.871,0.809 3.652,1.492 0.793,0.684 1.133,1.797 1.274,4.102 l 0.098,2 c 0.085,1.527 0.015,1.703 -1.348,1.781 l -8.789,0.476 -0.156,-2.785 c -0.2,-3.472 -0.024,-4.031 2.847,-4.773 l -0.078,-1.484 -8.379,0.457 0.071,1.496 c 3.015,0.418 3.234,0.898 3.425,4.422 l 0.141,2.785 -7.191,0.402 c -1.93,0.105 -2.989,0 -3.446,-0.812 -0.359,-0.735 -0.539,-2.129 -0.625,-3.719 -0.117,-2.102 0.098,-3.617 1.082,-4.668 0.864,-0.84 2.153,-1.653 3.938,-2.539 l -0.364,-1.449 c -1.863,0.355 -5.585,1.437 -6.812,1.82 l 1.16,21.172 1.453,-0.063 c 0.102,-3.562 0.324,-3.98 3.852,-4.179 l 15.926,-0.879 c 3.625,-0.204 3.859,0.207 4.265,3.136 l 1.446,-0.078 -1.075,-19.551 c -0.75,0 -3.66,-0.039 -6.25,-0.066 z M 491.57,215.5 c -0.632,-3.566 -1.425,-5.578 -2.847,-7.023 -1.368,-1.434 -3.403,-2.247 -5.957,-1.797 -3.586,0.633 -5.078,3.347 -5.746,6.297 -1.29,-0.36 -4.317,-1.422 -6.395,-2.286 -2.52,-1.05 -3.977,-1.675 -4.988,-2.363 -1.106,-0.723 -1.711,-1.285 -2.219,-2.176 l -1.262,0.489 c 0.051,0.246 0.18,0.722 0.254,1.218 1.184,5.11 2.602,6.496 5.481,7.688 1.867,0.762 4.289,1.465 6.621,2.273 1.379,0.434 2.004,1.075 2.265,2.375 l 0.149,0.782 -5.969,1.074 c -3.352,0.586 -3.84,0.262 -4.68,-2.754 l -1.422,0.254 2.188,12.344 1.441,-0.247 c -0.269,-3.125 0.079,-3.648 3.418,-4.246 l 15.715,-2.812 c 3.274,-0.574 3.762,-0.293 4.563,2.656 l 1.441,-0.254 z m -2.793,-18.801 c -1.109,-0.359 -1.343,-0.851 -1.687,-1.972 l -4.922,-15.957 c -0.344,-1.086 -0.266,-1.711 0.273,-2.618 l -0.285,-0.957 c -1.676,0.481 -5.254,1.368 -7.847,1.953 l 0.371,1.446 c 2.207,-0.149 3.679,-0.02 4.629,0.488 0.918,0.449 1.472,1.426 2.183,3.711 l 0.571,1.836 -18.793,5.781 c -3.375,1.055 -3.75,0.723 -5.094,-2.687 l -1.391,0.429 3.985,12.961 1.386,-0.429 c -0.738,-3.438 -0.625,-3.899 2.754,-4.942 l 18.789,-5.793 0.422,1.36 c 0.984,3.25 0.774,4.113 0.344,4.89 -0.488,0.852 -1.699,1.778 -3.52,2.903 l 0.461,1.433 c 2.832,-1.062 5.664,-2.187 7.664,-2.89 z m -13.828,-37.394 c -7.715,0.5 -15.379,1.066 -23.023,1.476 -3.899,0.196 -4.629,-0.09 -5.981,-2.351 l -1.328,0.586 4.797,10.886 1.316,-0.586 c -0.64,-2.39 -0.261,-2.793 1.68,-2.921 1.313,-0.125 3.164,-0.254 4.985,-0.372 l 3.21,7.297 c -1.003,0.938 -2.136,2.032 -3.476,3.164 -1.57,1.348 -2.141,1.493 -3.711,-1.132 l -1.34,0.586 3.762,8.527 1.316,-0.637 c -0.801,-2.637 -0.586,-3.273 2.055,-5.937 l 16.109,-16.426 z m -12.105,-22.43 -23.891,-3.82 -0.098,-0.145 6.211,-3.867 c 3.11,-1.945 4.895,-2.754 5.969,-3.328 1.621,-0.774 2.688,-0.41 4.434,2.078 l 1.23,-0.762 -5.371,-8.613 -1.238,0.77 c 1.094,1.984 1.094,3 -0.422,4.191 -1.023,0.781 -2.551,2.043 -5.652,3.965 l -14.004,8.73 1.074,1.692 26.695,3.726 0.071,0.102 -7.957,4.961 c -3.086,1.929 -4.75,2.711 -5.879,3.269 -1.661,0.801 -2.7,0.606 -4.438,-1.941 l -1.226,0.777 5.378,8.645 1.243,-0.762 c -1.094,-2.07 -1.035,-3.223 0.386,-4.324 1.079,-0.864 2.5,-2.043 5.598,-3.977 l 7.371,-4.601 c 2.309,-1.422 3.012,-1.778 4.25,-1.61 1.231,0.11 2.031,0.735 3.098,2.129 l 1.226,-0.762 z m -22.727,-32.434 -1.14,0.903 c 1.66,2.594 1.668,3.074 -1.118,5.261 l -12.488,9.856 c -2.766,2.168 -3.215,2.051 -5.344,-0.188 l -1.132,0.907 7.714,9.789 1.133,-0.891 c -1.679,-2.598 -1.679,-3.086 1.074,-5.242 l 12.5,-9.856 c 2.778,-2.187 3.247,-2.082 5.372,0.165 l 1.156,-0.918 z M 427.688,89.8242 c -7.09,3.1446 -14.067,6.3086 -21.094,9.3242 -3.625,1.5276 -4.375,1.5036 -6.449,-0.1445 l -1.043,1.0161 8.253,8.543 1.043,-0.997 c -1.425,-2.031 -1.218,-2.527 0.555,-3.308 1.192,-0.567 2.895,-1.336 4.555,-2.063 l 5.523,5.735 c -0.601,1.218 -1.304,2.656 -2.156,4.179 -1.035,1.797 -1.516,2.141 -3.887,0.204 l -1.047,1.015 6.465,6.711 1.008,-1.035 c -1.648,-2.207 -1.672,-2.902 -0.105,-6.301 l 9.453,-20.9647 z m -19.083,-16.8633 -23.75,4.5977 -0.109,-0.0859 4.5,-5.7735 c 2.246,-2.8906 3.645,-4.2773 4.453,-5.1758 1.274,-1.289 2.387,-1.3007 4.887,0.4493 l 0.894,-1.1524 -7.996,-6.2617 -0.898,1.1641 c 1.699,1.4648 2.051,2.4414 1.047,4.0742 -0.703,1.0937 -1.711,2.7695 -3.965,5.6719 l -10.156,13.0078 1.57,1.2187 26.379,-5.6719 0.098,0.086 -5.762,7.3554 c -2.246,2.8985 -3.535,4.1993 -4.406,5.1172 -1.297,1.3164 -2.332,1.4922 -4.832,-0.3047 l -0.903,1.1524 8.032,6.2695 0.898,-1.1484 c -1.738,-1.5664 -2.07,-2.6758 -1.106,-4.1914 0.696,-1.1797 1.629,-2.7735 3.899,-5.6446 l 5.332,-6.8554 c 1.656,-2.1367 2.215,-2.7071 3.434,-2.9766 1.203,-0.3242 2.168,0 3.644,0.9453 l 0.891,-1.1445 z m -36.3,-15.0781 c -3.567,0 -6.438,2.8711 -6.438,6.4336 0,3.5664 2.871,6.4375 6.438,6.4375 3.554,0 6.457,-2.8711 6.457,-6.4375 0,-3.5625 -2.903,-6.4336 -6.457,-6.4336 z m -14.668,-16.0078 -0.606,1.3164 c 2.078,1.3672 2.063,1.9063 0.696,3.3008 -0.891,0.9375 -2.192,2.2695 -3.481,3.5664 l -7.242,-3.3203 c 0.125,-1.3555 0.254,-2.9492 0.496,-4.668 0.293,-2.0586 0.613,-2.5508 3.523,-1.6211 l 0.61,-1.3164 -8.457,-3.8906 -0.586,1.3516 c 2.359,1.4531 2.637,2.0585 2.422,5.8085 l -1.133,22.9688 1.695,1.3789 c 5.442,-5.5 10.805,-11.0195 16.235,-16.3906 2.8,-2.7539 3.511,-2.9961 6.05,-2.2149 l 0.598,-1.3203 z m -29.883,-11.7187 -0.481,1.375 c 2.817,1.2812 3.071,1.6718 1.938,4.9726 l -5.18,15.0586 c -1.14,3.3398 -1.59,3.4961 -4.59,2.7852 l -0.488,1.3671 11.809,4.0508 0.461,-1.375 c -2.793,-1.2812 -3.071,-1.664 -1.914,-5.0117 l 5.171,-15.0703 c 1.133,-3.2891 1.575,-3.4453 4.59,-2.7227 l 0.461,-1.3671 z m -14.453,-4.629 c -1.453,-0.3515 -2.91,-0.5 -4.219,-0.4492 -1.199,0.0274 -2.062,0.1641 -2.668,0.2539 -0.625,0.9297 -2.012,4.1797 -2.906,6.5703 l 1.297,0.793 c 1.472,-2.375 4.98,-6.289 8.847,-5.3125 2.453,0.625 3.606,2.6953 2.957,5.2539 -0.593,2.375 -2.754,3.4102 -6.171,4.2656 -4.668,1.0469 -8.094,2.5 -9.059,6.379 -1.137,4.4335 1.504,8.789 7.242,10.2265 2.57,0.6406 5.063,0.418 5.859,0.3203 0.547,-1.4453 1.262,-3.1523 2.231,-5.5742 l -1.313,-0.6641 c -1.46,2.3204 -3.71,4.9297 -7.031,4.0821 -2.246,-0.5586 -3.472,-2.6563 -2.887,-4.961 0.567,-2.207 2.325,-3.1367 6.329,-4.0156 4.761,-0.9844 8.218,-2.5 9.238,-6.5234 1.148,-4.5781 -1.859,-9.1602 -7.746,-10.6446 z m -23.289,7.2149 0.769,-5.2617 c 0.52,-3.711 0.867,-3.918 4.602,-3.711 l 0.183,-1.3945 -13.359,-1.9258 -0.203,1.3985 c 3.457,0.789 3.785,1.1289 3.25,4.8398 l -0.652,4.5625 c -0.137,1.0234 -0.356,1.418 -0.852,2.1484 -1.437,2.1094 -3.34,4.6485 -6.445,8.6133 -1.907,2.5 -2.664,2.8633 -4.981,2.8633 l -0.207,1.4258 11.778,1.6992 0.207,-1.457 c -2.664,-0.75 -2.539,-1.2774 -1.59,-2.6485 1.843,-2.6328 3.926,-5.4492 5.965,-8.2812 0.871,2.539 2.402,6.6992 3.039,9.3476 0.425,1.7383 0.308,2.2735 -2.817,2.2579 l -0.191,1.4218 9.539,1.3711 0.207,-1.4258 c -2.59,-0.6757 -3.313,-1.5429 -4.445,-4.1718 -1.18,-2.6485 -1.985,-4.5703 -3.45,-8.7305 -0.425,-1.1719 -0.515,-1.668 -0.347,-2.9414 z m -27.246,-13.6797 -0.051,1.4531 c 2.441,0.4414 2.629,0.9492 1.926,2.7539 -0.469,1.2344 -1.145,2.9532 -1.821,4.6602 l -7.957,-0.2344 c -0.425,-1.3086 -0.925,-2.8203 -1.386,-4.5039 -0.516,-1.9922 -0.426,-2.5781 2.628,-2.8789 l 0.047,-1.4453 -9.316,-0.2539 v 1.4453 c 2.73,0.4102 3.23,0.8789 4.496,4.4141 l 7.906,21.6015 2.102,0.5977 c 2.871,-7.1914 5.64,-14.3477 8.555,-21.4297 1.519,-3.6016 2.07,-4.1406 4.695,-4.3828 l 0.051,-1.4649 z m -22.727,0.0195 -20.152,1.9258 0.148,1.4531 c 3.621,-0.0507 4.063,0.1954 4.399,3.6719 l 1.519,15.8477 c 0.348,3.5664 -0.051,3.8476 -3.164,4.4453 l 0.141,1.4453 12.668,-1.2109 -0.149,-1.4454 c -3.215,0 -3.613,-0.1953 -3.945,-3.7695 l -1.566,-16.125 c -0.168,-1.9531 -0.079,-2.7226 0.742,-3.164 0.675,-0.3594 1.797,-0.5625 3.07,-0.6719 1.746,-0.1758 3.262,-0.0196 4.355,0.9961 0.879,0.8008 1.758,2.039 2.731,4.0508 l 1.41,-0.6016 c -0.504,-1.7109 -1.762,-5.7734 -2.207,-6.8477 z m -25.266,2.5274 -11.613,2.5703 0.317,1.418 c 2.48,-0.168 2.785,0.2812 2.531,2.1953 -0.133,1.3164 -0.379,3.1523 -0.613,4.9609 l -7.793,1.7109 c -0.727,-1.164 -1.571,-2.5117 -2.426,-4.0156 -0.992,-1.8242 -1.043,-2.414 1.851,-3.4375 l -0.324,-1.414 -9.086,1.9921 0.356,1.4258 c 2.742,-0.2773 3.328,0.0782 5.429,3.1914 l 12.914,19.0235 2.192,0.0586 c 1.027,-7.6641 1.988,-15.2813 3.078,-22.8438 0.598,-3.8672 1.008,-4.5195 3.496,-5.4101 z m -28.738,28.8515 -5.258,-14.6211 c -1.308,-3.6054 -1.222,-3.9531 1.684,-5.4296 l -0.523,-1.3672 -11.469,4.4531 0.511,1.3477 c 3.036,-0.8125 3.372,-0.625 4.719,2.9492 l 5.692,14.9492 -0.192,0.0781 -16.363,-16.8437 -1.098,0.4179 -0.246,22.8438 -0.156,0.0586 -4.387,-9.9414 c -1.406,-3.1563 -2.097,-4.9805 -2.422,-6.25 -0.496,-1.7969 0.129,-2.4414 2.594,-3.6719 l -0.523,-1.3477 -9.305,3.5938 0.531,1.3476 c 2.242,-0.6367 3.242,-0.2226 4,1.0352 0.723,1.1523 1.813,3.0547 3.637,6.9844 l 3.594,7.4375 c 2.015,4.2969 1.953,4.9531 -1.258,6.5351 l 0.519,1.3594 8.039,-3.0859 0.903,-19.875 14.176,14.0312 7.781,-3.0234 -0.524,-1.3516 c -3.218,0.8906 -3.488,0.6367 -4.656,-2.6133 z M 141.008,55 c -3.559,0 -6.445,2.8906 -6.445,6.4531 0,3.5469 2.886,6.4375 6.445,6.4375 3.562,0 6.433,-2.8906 6.433,-6.4375 C 147.441,57.8906 144.57,55 141.008,55 Z m -9.516,23.3477 -9.269,-12.9571 c -2.047,-2.8711 -1.914,-3.332 0.422,-5.3398 l -0.86,-1.1953 -10.137,7.2695 0.856,1.1797 c 2.656,-1.5742 3.141,-1.5352 5.191,1.3281 l 9.27,12.961 c 2.015,2.8476 1.89,3.289 -0.445,5.3203 l 0.843,1.1718 10.149,-7.2382 -0.864,-1.1797 c -2.648,1.5312 -3.128,1.5234 -5.156,-1.3203 z m -23.508,-8.0352 -0.976,-1.0859 -5.731,5.1367 0.36,24.1836 -0.133,0.1133 -4.879,-5.4571 c -2.4297,-2.7148 -3.5547,-4.3242 -4.2852,-5.2929 -1.0507,-1.4766 -0.8671,-2.5899 1.2735,-4.7188 l -0.9649,-1.1016 -7.5546,6.7891 0.9765,1.0703 c 1.7461,-1.414 2.7539,-1.5703 4.1953,-0.2929 0.9571,0.871 2.4453,2.1679 4.8711,4.875 l 11.0233,12.3167 1.485,-1.36 -0.93,-26.9411 0.094,-0.0703 6.226,6.9531 c 2.457,2.7226 3.512,4.2187 4.246,5.2344 1.071,1.5039 1.071,2.5507 -1.133,4.707 l 0.965,1.0937 7.594,-6.8085 -0.977,-1.0821 c -1.839,1.4141 -3.007,1.5625 -4.3,0.3516 -1.063,-0.9102 -2.457,-2.1016 -4.903,-4.8242 l -5.793,-6.4727 c -1.808,-2.0156 -2.285,-2.668 -2.332,-3.8984 -0.097,-1.2578 0.391,-2.1289 1.582,-3.418 z M 74.1602,100.438 c -1.75,2.011 -2.6914,4.328 -2.9649,5.089 1.0547,1.121 2.2383,2.559 3.957,4.493 l 1.1915,-0.821 c -1.4024,-2.402 -2.6954,-5.586 -0.4649,-8.144 1.5234,-1.7503 3.9727,-1.8831 5.7461,-0.325 1.7344,1.504 1.7422,3.508 0.7109,7.461 -1.2695,4.68 -1.4921,8.469 1.6055,11.172 3.5742,3.125 9.0039,2.532 13.0156,-2.05 0.9766,-1.122 1.7813,-2.364 2.3203,-3.524 0.5157,-1.105 0.7777,-1.926 0.9727,-2.527 -0.5234,-0.957 -2.8047,-3.657 -4.5273,-5.559 l -1.3047,0.801 c 1.4726,2.383 3.3476,7.285 0.7187,10.293 -1.6679,1.914 -4.0469,1.973 -6.0195,0.254 -1.8359,-1.621 -1.7891,-4.016 -1.0078,-7.442 1.2109,-4.648 1.4492,-8.339 -1.5586,-10.984 -3.4375,-3.0117 -8.5039,-2.6406 -12.3906,1.813 z m -9.8204,11.035 c 0.4102,1.105 0.168,1.593 -0.4921,2.55 l -9.543,13.719 c -0.6484,0.918 -1.1914,1.25 -2.2305,1.379 l -0.5703,0.82 c 1.4063,1.036 4.293,3.282 6.3516,4.989 l 0.9336,-1.18 c -1.4961,-1.641 -2.2969,-2.902 -2.4805,-3.945 -0.207,-1.016 0.207,-2.039 1.5937,-4.024 l 1.086,-1.554 16.1406,11.203 c 2.9024,2.031 2.8672,2.508 1.0234,5.672 l 1.1875,0.851 7.7422,-11.133 -1.1992,-0.832 c -2.2305,2.707 -2.6758,2.903 -5.5781,0.879 l -16.1406,-11.238 0.8047,-1.152 c 1.9492,-2.801 2.7578,-3.145 3.6562,-3.282 0.9531,-0.136 2.4258,0.215 4.4453,0.957 l 0.8399,-1.222 c -2.5704,-1.59 -5.211,-3.125 -6.9922,-4.254 z m -13.6992,25.09 -1.2773,-0.715 -6.0547,10.918 1.2773,0.707 c 1.7461,-2.551 2.1758,-2.739 5.2774,-1.028 l 13.9101,7.735 c 3.0625,1.699 3.1329,2.16 1.9063,5 l 1.2578,0.703 6.0586,-10.91 -1.2695,-0.711 c -1.7578,2.558 -2.1914,2.734 -5.2461,1.043 L 52.5703,141.57 c -3.0976,-1.707 -3.164,-2.183 -1.9297,-5.007 z m -11.7343,16.32 c 0.6171,0.972 0.4843,1.512 0.0234,2.586 l -6.5899,15.351 c -0.4414,1.035 -0.9062,1.465 -1.9062,1.809 l -0.3906,0.918 c 1.582,0.719 4.8633,2.351 7.2226,3.601 l 0.6758,-1.355 c -1.7969,-1.289 -2.8281,-2.375 -3.2187,-3.371 -0.4024,-0.938 -0.2071,-2.031 0.7382,-4.246 l 0.7539,-1.75 18.0665,7.746 c 3.2539,1.394 3.3203,1.883 2.1445,5.359 l 1.332,0.574 5.3516,-12.449 -1.3399,-0.586 c -1.6484,3.098 -2.039,3.379 -5.2968,1.973 L 38.4023,161.301 38.9805,160 c 1.332,-3.137 2.0547,-3.645 2.914,-3.945 0.8985,-0.332 2.4102,-0.285 4.5391,0.047 l 0.5937,-1.383 c -2.8632,-1.039 -5.746,-1.996 -7.7304,-2.766 z m -13.504,39.129 1.3907,0.39 c 1.1015,-2.843 1.4843,-3.175 5.2539,-2.129 l 8.6914,2.411 c 6.0156,1.664 8.8867,4.796 7.6953,9.113 -1.3242,4.766 -5.4883,5.859 -12.2031,4.004 l -4.2735,-1.184 c -2.832,-0.789 -4.3047,-1.414 -5.457,-1.949 -1.3437,-0.59 -1.875,-1.777 -1.2891,-4.531 l -1.4023,-0.395 -2.7891,10.051 1.4063,0.391 c 0.7344,-2.168 1.8476,-2.942 3.3164,-2.746 1.2969,0.136 2.8164,0.39 5.668,1.171 l 4.3671,1.223 c 4.2422,1.172 7.7813,1.473 10.8086,-0.117 2.4336,-1.309 4.1875,-3.77 4.9766,-6.602 0.7266,-2.636 0.8672,-5.332 -0.1211,-7.668 -1.1289,-2.761 -3.8086,-4.636 -8.4883,-5.933 l -9.4218,-2.61 c -3.7618,-1.023 -3.9336,-1.511 -3.3946,-4.55 l -1.4062,-0.391 z m -6.5507,22.746 c 0.8554,0.769 0.8672,1.328 0.707,2.476 l -2.1953,16.567 c -0.1602,1.101 -0.4883,1.648 -1.3633,2.262 l -0.1328,0.988 c 1.7266,0.262 5.3242,0.949 7.9414,1.512 l 0.2734,-1.473 c -2.0781,-0.774 -3.3515,-1.535 -4,-2.371 -0.6523,-0.801 -0.7461,-1.906 -0.4414,-4.309 l 0.2696,-1.894 19.4804,2.609 c 3.5117,0.477 3.6953,0.918 3.5117,4.566 l 1.4336,0.207 1.7852,-13.425 -1.4336,-0.207 c -0.7461,3.425 -1.043,3.797 -4.5469,3.332 l -19.4922,-2.59 0.1875,-1.414 c 0.4375,-3.371 0.9922,-4.067 1.7344,-4.582 0.793,-0.567 2.2695,-0.918 4.3985,-1.192 l 0.1992,-1.472 c -3.0313,-0.227 -6.0782,-0.395 -8.1836,-0.586 z m -2.336,51.758 c 0.1172,3.269 0.6485,5.625 1.875,7.214 1.3946,1.907 3.5157,2.95 6.2071,2.84 5.5625,-0.164 7.9609,-4.375 8.3632,-8.757 0.0586,-0.618 0.0313,-1.297 0.0079,-1.758 l -0.7579,-2.793 5.6954,-0.188 c 3.5234,-0.125 3.832,0.227 4.2382,3.813 l 1.4141,-0.063 -0.4453,-12.906 -1.4102,0.035 c -0.1718,3.137 -0.4492,3.52 -3.9922,3.637 l -15.9101,0.547 c -3.5235,0.117 -3.7813,-0.246 -4.2188,-3.098 l -1.4531,0.039 z m 3.8555,35.769 c 0.75,-0.078 3.6484,-0.305 6.2305,-0.508 l -0.0157,-1.511 c -1.4921,-0.2 -2.9336,-0.539 -3.7929,-1.164 -0.8438,-0.586 -1.3047,-1.653 -1.6367,-3.957 l -0.293,-1.969 c -0.2383,-1.528 -0.168,-1.711 1.1758,-1.899 l 8.7226,-1.316 0.4063,2.762 c 0.5156,3.449 0.3945,4.004 -2.3985,5.019 l 0.2227,1.485 8.3008,-1.239 -0.211,-1.496 c -3.0547,-0.125 -3.289,-0.594 -3.8086,-4.09 l -0.4218,-2.746 7.1172,-1.07 c 1.9296,-0.293 2.9843,-0.285 3.5117,0.477 0.4453,0.695 0.7304,2.07 0.9765,3.64 0.3086,2.102 0.2305,3.625 -0.6328,4.758 -0.7929,0.93 -1.9961,1.863 -3.6836,2.898 l 0.4961,1.418 c 1.8086,-0.539 5.4219,-1.964 6.6055,-2.48 l -3.1367,-20.957 -1.4414,0.215 c 0.2422,3.535 0.0468,3.996 -3.4414,4.511 l -15.7891,2.364 c -3.5664,0.539 -3.8477,0.156 -4.5313,-2.727 l -1.4375,0.227 z m 3.2891,14.52 21.9296,10.226 0.0508,0.176 -7.039,2.004 c -3.5039,1.004 -5.4571,1.305 -6.6446,1.559 -1.7773,0.304 -2.6875,-0.34 -3.6914,-3.231 l -1.3945,0.422 2.8008,9.734 1.3867,-0.39 c -0.4883,-2.188 -0.2148,-3.184 1.5625,-3.914 1.207,-0.469 3.0234,-1.25 6.5352,-2.258 l 15.8593,-4.563 -0.5508,-1.914 -24.6601,-10.918 -0.0352,-0.105 8.9922,-2.586 c 3.5078,-1.008 5.336,-1.32 6.5664,-1.543 1.8047,-0.305 2.7657,0.164 3.7305,3.094 l 1.3945,-0.41 -2.8008,-9.786 -1.4062,0.391 c 0.4805,2.273 0.1172,3.398 -1.5586,4.043 -1.2812,0.547 -2.9727,1.289 -6.4805,2.297 l -8.3437,2.39 c -2.6055,0.743 -3.3828,0.879 -4.5274,0.391 -1.1718,-0.441 -1.7421,-1.269 -2.3945,-2.91 l -1.3906,0.41 z m 12.6523,36.504 1.3359,-0.594 c -0.7617,-2.649 -0.2421,-2.832 1.4258,-2.766 3.2031,0.168 6.6914,0.449 10.1524,0.688 -1.6719,2.058 -4.3789,5.586 -6.2969,7.508 -1.25,1.289 -1.7695,1.472 -3.3945,-1.172 l -1.3282,0.586 3.918,8.808 1.3242,-0.586 c -0.8203,-2.527 -0.4726,-3.593 1.1758,-5.957 1.6094,-2.402 2.8203,-4.109 5.5547,-7.558 0.8008,-0.996 1.1484,-1.328 2.332,-1.844 l 4.8516,-2.16 c 3.4336,-1.512 3.793,-1.309 5.5859,1.941 l 1.3047,-0.574 -5.4687,-12.356 -1.3047,0.571 c 1.1679,3.355 1.0547,3.804 -2.3789,5.332 l -4.2071,1.863 c -0.9492,0.422 -1.3906,0.449 -2.2734,0.422 -2.543,-0.109 -5.7148,-0.383 -10.7148,-0.91 -3.129,-0.285 -3.8321,-0.75 -5.0586,-2.696 l -1.3243,0.586 z m 18.5273,34.668 c 0.6641,-0.34 3.2657,-1.661 5.5625,-2.84 l -0.5859,-1.387 c -1.4726,0.383 -2.9258,0.625 -3.9492,0.371 -1.0156,-0.234 -1.8203,-1.047 -3.0156,-3.047 l -1.0235,-1.711 c -0.789,-1.328 -0.8008,-1.511 0.3711,-2.207 l 7.5664,-4.519 1.4258,2.383 c 1.7969,3.007 1.8906,3.566 -0.3125,5.566 l 0.7656,1.301 7.2032,-4.328 -0.7657,-1.282 c -2.8632,1.028 -3.2617,0.696 -5.0742,-2.343 l -1.4258,-2.391 6.1836,-3.672 c 1.6563,-1.016 2.6407,-1.406 3.4258,-0.898 0.668,0.468 1.457,1.64 2.2774,2.988 1.0898,1.824 1.6015,3.262 1.2148,4.648 -0.3711,1.145 -1.1328,2.469 -2.2969,4.09 l 0.9883,1.086 c 1.4883,-1.16 4.2891,-3.847 5.1836,-4.765 l -10.875,-18.215 -1.2539,0.746 c 1.5625,3.191 1.5625,3.672 -1.4688,5.484 l -13.6992,8.195 c -3.1054,1.844 -3.5039,1.602 -5.2304,-0.8 l -1.2461,0.742 z m 11.9219,16.457 1.1485,-0.887 c -1.6993,-2.727 -1.7383,-3.164 1.1132,-5.344 l 12.9102,-9.805 c 1.5508,-1.191 2.2461,-1.503 3.0781,-1.035 0.6524,0.379 1.4102,1.231 2.1875,2.254 1.0469,1.391 1.7305,2.746 1.4453,4.231 -0.2226,1.152 -0.8281,2.547 -2.0039,4.453 l 1.25,0.879 c 1.1836,-1.336 3.9649,-4.539 4.6485,-5.489 l -12.2539,-16.113 -1.1602,0.879 c 1.9609,3.059 1.9883,3.563 -0.793,5.676 l -12.6718,9.637 c -2.8594,2.168 -3.2969,1.992 -5.4454,-0.34 l -1.164,0.875 z m 16.7344,19.382 1.0781,-0.984 c -1.8672,-2.473 -1.8984,-2.941 0.6953,-5.312 l 11.7383,-10.77 c 2.5625,-2.363 3.0352,-2.285 5.3282,-0.227 l 1.082,-0.976 -8.4375,-9.18 -1.0742,0.977 c 1.871,2.453 1.9101,2.937 -0.6758,5.293 l -11.7227,10.761 c -2.5976,2.403 -3.0586,2.317 -5.3711,0.235 l -1.0664,0.996 z m 13.8867,13.176 c 3.9222,3.399 7.6332,5.274 11.3832,5.106 2.812,-0.145 5.961,-1.309 8.543,-4.246 3.316,-3.829 4.16,-7.891 3.39,-11.817 -0.789,-3.781 -3.316,-7.461 -7.222,-10.879 l -8.067,-7.011 -0.957,1.093 c 2.289,2.371 2.41,2.879 0.094,5.535 l -10.4298,11.985 c -2.3438,2.695 -2.7891,2.637 -5.2109,0.906 l -0.961,1.094 z m 27.0272,20.731 0.82,-1.211 c -2.359,-1.981 -2.503,-2.43 -0.48,-5.332 l 9.082,-13.086 c 1.996,-2.86 2.469,-2.899 5.152,-1.367 l 0.844,-1.192 -10.238,-7.129 -0.852,1.192 c 2.371,2.011 2.5,2.461 0.52,5.332 l -9.082,13.066 c -2.016,2.902 -2.496,2.93 -5.18,1.418 l -0.824,1.199 z m 15.945,9.531 0.7,-1.289 c -2.457,-1.66 -2.598,-2.078 -0.91,-5.176 l 3.394,-6.211 c 0.637,0.637 1.234,1.731 1.715,3.457 1.098,3.781 1.578,6.399 1.894,8.664 0.235,1.641 -0.128,2.11 -1.953,1.395 l -0.707,-0.254 -0.711,1.289 9.493,5.187 0.699,-1.289 c -2.153,-1.445 -3.371,-2.746 -4.367,-5.714 -1.079,-3.125 -1.653,-5.723 -2.36,-8.329 4.235,-2.187 8.946,-4.406 13.387,-6.289 2.512,-1.047 3.836,-1.132 5.41,-0.558 l 0.691,-1.258 -7.328,-4.016 c -2.746,1.301 -8.109,3.918 -12.742,6.25 -1.379,0.715 -1.976,0.676 -2.484,0.293 l 3.578,-6.562 c 1.684,-3.094 2.164,-3.184 5.113,-1.895 l 0.707,-1.277 -10.91,-5.949 -0.695,1.281 c 2.484,1.68 2.715,2.137 1.011,5.234 l -7.613,13.946 c -1.699,3.086 -2.164,3.183 -5.035,1.921 l -0.703,1.282 z m 29.2,-9.16 0.371,23 1.789,1.258 c 5.07,-5.86 10.058,-11.7 15.121,-17.411 2.617,-2.929 3.316,-3.242 5.894,-2.617 l 0.508,-1.359 -11.105,-4.227 -0.516,1.356 c 2.156,1.23 2.172,1.758 0.899,3.222 -0.828,1.028 -2.047,2.442 -3.223,3.809 l -7.457,-2.84 c 0.023,-1.367 0.059,-2.961 0.176,-4.687 0.168,-2.063 0.461,-2.59 3.418,-1.856 l 0.515,-1.359 -8.711,-3.32 -0.461,1.367 c 2.442,1.289 2.743,1.906 2.782,5.664 z m 26.64,31.398 19.485,-14.328 0.172,0.031 -1.606,7.157 c -0.805,3.574 -1.469,5.402 -1.82,6.574 -0.594,1.699 -1.598,2.195 -4.594,1.699 l -0.32,1.406 9.894,2.227 0.321,-1.426 c -2.176,-0.605 -2.907,-1.328 -2.688,-3.234 0.164,-1.289 0.348,-3.243 1.152,-6.825 l 3.622,-16.093 -1.942,-0.442 -21.41,16.399 -0.137,-0.012 2.059,-9.148 c 0.812,-3.555 1.402,-5.293 1.797,-6.485 0.601,-1.75 1.465,-2.355 4.508,-1.797 l 0.324,-1.418 -9.946,-2.246 -0.32,1.438 c 2.231,0.664 3.024,1.523 2.793,3.289 -0.144,1.398 -0.305,3.222 -1.098,6.789 l -1.91,8.496 c -0.593,2.625 -0.855,3.379 -1.828,4.141 -0.933,0.789 -1.949,0.918 -3.699,0.703 l -0.309,1.426 z m 50.891,7.207 c 5.195,0.156 9.246,-0.754 12.019,-3.254 2.094,-1.894 3.793,-4.804 3.915,-8.691 0.156,-5.086 -1.77,-8.75 -4.872,-11.297 -3.011,-2.422 -7.281,-3.664 -12.488,-3.82 l -10.672,-0.313 -0.039,1.457 c 3.266,0.391 3.672,0.692 3.582,4.227 l -0.468,15.859 c -0.102,3.586 -0.481,3.828 -3.45,4.024 l -0.039,1.457 z m 16.945,-25.117 c 2.778,0.059 3.324,0.469 5.039,3.789 l 10.649,20.391 2.176,0.32 c 1.894,-7.5 3.718,-14.961 5.695,-22.352 1.023,-3.781 1.504,-4.375 4.058,-4.972 l -0.132,-1.453 -11.828,1.211 0.148,1.445 c 2.477,0.125 2.73,0.613 2.266,2.488 -0.293,1.281 -0.723,3.098 -1.172,4.856 l -7.95,0.8 c -0.585,-1.222 -1.269,-2.667 -1.933,-4.269 -0.781,-1.914 -0.766,-2.5 2.223,-3.191 l -0.157,-1.457 -9.265,0.957 z m 29.758,-3.164 c 2.297,-0.402 3.379,0.008 3.977,1.719 0.488,1.269 1.172,2.996 2.058,6.543 l 2.102,8.425 c 0.64,2.637 0.762,3.411 0.23,4.543 -0.484,1.133 -1.336,1.688 -2.984,2.274 l 0.34,1.406 7.453,-1.844 11.015,-21.554 0.157,-0.028 1.773,7.09 c 0.883,3.555 1.113,5.508 1.328,6.688 0.227,1.789 -0.468,2.695 -3.355,3.574 l 0.34,1.418 9.851,-2.442 -0.347,-1.417 c -2.207,0.421 -3.184,0.109 -3.848,-1.688 -0.434,-1.223 -1.152,-3.047 -2.031,-6.602 l -3.989,-16.027 -1.929,0.488 -11.782,24.27 -0.125,0.019 -2.265,-9.074 c -0.867,-3.554 -1.113,-5.371 -1.297,-6.609 -0.234,-1.836 0.254,-2.774 3.199,-3.633 l -0.347,-1.406 -9.868,2.441 z m 39.695,-11.25 c 2.856,-0.977 3.34,-0.891 4.829,2.324 l 6.636,14.403 c 1.489,3.214 1.274,3.625 -1.441,5.207 l 0.613,1.328 11.106,-5.117 -0.625,-1.329 c -2.793,0.957 -3.223,0.848 -4.7,-2.375 l -2.961,-6.406 c 0.903,-0.144 2.129,0.031 3.789,0.676 3.704,1.355 6.079,2.559 8.086,3.633 1.465,0.801 1.645,1.367 -0.015,2.41 l -0.637,0.422 0.598,1.328 9.824,-4.531 -0.617,-1.328 c -2.442,0.859 -4.231,1.082 -7.176,0.105 -3.164,-0.996 -5.59,-2.078 -8.105,-3.086 0.742,-4.695 1.792,-9.785 2.917,-14.473 0.672,-2.656 1.399,-3.75 2.801,-4.675 l -0.613,-1.321 -7.59,3.496 c -0.601,2.989 -1.695,8.84 -2.574,13.965 -0.258,1.535 -0.637,1.985 -1.234,2.16 l -3.141,-6.789 c -1.477,-3.203 -1.262,-3.621 1.519,-5.234 l -0.613,-1.316 -11.277,5.203 z m 40.207,8.953 16.614,-10.379 c -0.356,-0.644 -1.719,-3.222 -2.961,-5.508 l -1.367,0.633 c 0.418,1.446 0.695,2.903 0.441,3.938 -0.195,0.996 -0.996,1.836 -2.973,3.074 l -1.675,1.047 c -1.321,0.808 -1.504,0.84 -2.227,-0.313 l -4.672,-7.5 2.363,-1.465 c 2.954,-1.847 3.52,-1.953 5.571,0.215 l 1.25,-0.812 -4.453,-7.11 -1.262,0.793 c 1.094,2.832 0.754,3.25 -2.227,5.118 l -2.363,1.472 -3.809,-6.082 c -1.046,-1.672 -1.457,-2.637 -0.964,-3.437 0.457,-0.676 1.597,-1.496 2.949,-2.325 1.797,-1.125 3.219,-1.671 4.617,-1.32 1.145,0.363 2.488,1.074 4.141,2.207 l 1.086,-1.004 c -1.235,-1.457 -3.965,-4.191 -4.907,-5.078 l -17.984,11.231 0.777,1.23 c 3.149,-1.621 3.637,-1.621 5.512,1.367 l 8.453,13.543 c 1.926,3.067 1.672,3.449 -0.683,5.235 z m 23.184,-16.336 0.945,1.113 6.582,-5.546 -5.64,-19.102 17.984,8.652 6.379,-5.39 -0.945,-1.106 c -2.754,1.887 -3.098,1.739 -5.254,-0.945 l -9.746,-12.117 c -2.414,-2.981 -2.446,-3.332 -0.188,-5.676 l -0.929,-1.121 -9.403,7.957 0.938,1.101 c 2.597,-1.746 2.976,-1.687 5.422,1.262 l 10.261,12.274 -0.168,0.136 -20.957,-10.605 -0.894,0.773 7.215,21.66 -0.137,0.106 -7.395,-7.957 c -2.34,-2.52 -3.601,-4.024 -4.312,-5.117 -1.074,-1.543 -0.688,-2.356 1.25,-4.328 l -0.942,-1.094 -7.617,6.437 0.942,1.094 c 1.914,-1.34 2.996,-1.269 4.136,-0.312 1.036,0.847 2.7,2.285 5.703,5.39 l 5.825,5.867 c 3.308,3.411 3.472,4.036 0.945,6.594 z m 39.387,-34.875 1.797,-1.238 c -3.743,-6.777 -7.512,-13.477 -11.157,-20.203 -1.824,-3.457 -1.875,-4.219 -0.41,-6.418 l -1.109,-0.957 -7.793,8.984 1.109,0.957 c 1.899,-1.621 2.395,-1.437 3.344,0.254 0.66,1.141 1.578,2.754 2.461,4.348 l -5.227,6.011 c -1.281,-0.496 -2.761,-1.05 -4.343,-1.785 -1.899,-0.871 -2.289,-1.308 -0.571,-3.84 l -1.093,-0.957 -6.114,7.032 1.137,0.929 c 2.051,-1.855 2.715,-1.933 6.25,-0.683 z m 10.879,-15.84 1.187,0.852 7.152,-10.176 -1.195,-0.82 c -1.914,2.207 -2.359,2.351 -5.254,0.312 l -11.226,-7.89 c -3.95,-2.774 -7.407,-4.707 -12.2,-3.387 -2.121,0.535 -3.73,1.531 -5.007,2.652 l 0.886,1.407 c 2.063,-1.29 3.977,-1.465 6.36,-0.321 2.117,1.035 4.336,2.512 6.89,4.297 l 11.094,7.805 c 2.895,2.027 2.895,2.539 1.313,5.269 z m 10.347,-14.527 1.289,0.699 6.036,-10.937 -1.266,-0.711 c -1.723,2.519 -2.192,2.734 -5.586,0.847 l -7.895,-4.363 c -5.464,-3.019 -7.546,-6.719 -5.378,-10.652 2.39,-4.336 6.707,-4.406 12.785,-1.059 l 3.882,2.141 c 2.598,1.426 3.879,2.383 4.868,3.172 1.172,0.879 1.422,2.16 0.215,4.711 l 1.257,0.691 5.047,-9.109 -1.265,-0.715 c -1.235,1.941 -2.485,2.422 -3.872,1.902 -1.226,-0.437 -2.644,-1.043 -5.234,-2.469 l -3.965,-2.175 c -3.855,-2.141 -7.222,-3.246 -10.547,-2.407 -2.671,0.688 -4.937,2.676 -6.367,5.254 -1.324,2.395 -2.097,4.973 -1.679,7.492 0.468,2.95 2.636,5.379 6.886,7.735 l 8.543,4.734 c 3.43,1.875 3.488,2.375 2.246,5.219 z m 21.985,-39.777 c -5.782,-5.157 -11.551,-10.223 -17.2,-15.379 -2.871,-2.676 -3.179,-3.371 -2.515,-5.918 l -1.352,-0.539 -4.383,11.043 1.348,0.539 c 1.238,-2.129 1.785,-2.149 3.234,-0.852 1.004,0.852 2.403,2.063 3.75,3.274 l -2.953,7.421 c -1.367,-0.058 -2.949,-0.097 -4.683,-0.261 -2.063,-0.176 -2.578,-0.469 -1.797,-3.43 l -1.359,-0.547 -3.438,8.66 1.379,0.481 c 1.324,-2.41 1.934,-2.703 5.684,-2.688 l 23.003,-0.039 z m -19.305,-86.758 c 0,-110.41 -89.531,-199.9103 -199.934,-199.9103 -110.41,0 -199.9176,89.5003 -199.9176,199.9103 0,110.43 89.5076,199.922 199.9176,199.922 110.403,0 199.934,-89.492 199.934,-199.922 z m 22.945,65.82 c 0.793,0.957 0.879,1.973 0.649,3.711 l 1.414,0.332 1.804,-7.473 -14.05,-19.707 0.05,-0.156 7.11,1.699 c 3.555,0.852 5.398,1.555 6.551,1.926 1.687,0.613 2.175,1.633 1.621,4.61 l 1.418,0.351 2.363,-9.871 -1.406,-0.332 c -0.649,2.156 -1.379,2.879 -3.282,2.637 -1.269,-0.188 -3.246,-0.403 -6.789,-1.262 l -16.062,-3.848 -0.473,1.946 16.098,21.636 -0.024,0.129 -9.097,-2.195 c -3.574,-0.852 -5.293,-1.477 -6.465,-1.887 -1.738,-0.625 -2.336,-1.496 -1.738,-4.519 l -1.418,-0.344 -2.383,9.914 1.418,0.328 c 0.699,-2.226 1.57,-2.996 3.355,-2.754 1.368,0.168 3.203,0.364 6.758,1.211 l 8.457,2.016 c 2.617,0.64 3.371,0.906 4.121,1.902 z m 11.075,-41.515 0.683,-11.395 c 0.18,-3.281 -0.125,-5.664 -1.211,-7.363 -1.187,-2.024 -3.199,-3.262 -5.918,-3.418 -5.554,-0.332 -8.328,3.625 -9.109,7.961 -0.125,0.601 -0.164,1.277 -0.188,1.726 l 0.493,2.852 -5.684,-0.332 c -3.535,-0.203 -3.789,-0.594 -3.879,-4.18 l -1.414,-0.066 -0.754,12.886 1.414,0.09 c 0.473,-3.086 0.781,-3.445 4.301,-3.242 l 15.894,0.938 c 3.539,0.214 3.75,0.593 3.926,3.476 z M 257.328,511.68 C 117.844,511.68 4.35938,397.883 4.35938,258.008 4.35938,118.145 117.844,4.34766 257.328,4.34766 c 139.488,0 252.977,113.79734 252.977,253.66034 0,139.875 -113.489,253.672 -252.977,253.672"
         style="fill:#2ea53a;fill-opacity:1;fill-rule:nonzero;stroke:none"
         id="path48" />
      <path
         d="m 345.984,58.5742 c 0.2,-3.2539 0.5,-6.4062 0.746,-9.5312 l 5.899,2.6953 -6.524,6.8867 -0.121,-0.0508"
         style="fill:#2ea53a;fill-opacity:1;fill-rule:nonzero;stroke:none"
         id="path50" />
      <path
         d="m 488.508,218.906 -9.985,1.778 -0.195,-1.055 c -0.308,-1.719 -0.262,-3.156 0.395,-4.199 0.894,-1.602 2.437,-2.461 4.519,-2.84 4.324,-0.774 6.375,1.48 6.785,3.765 0.2,1.028 0.129,1.633 -0.078,1.926 -0.176,0.313 -0.562,0.469 -1.441,0.625"
         style="fill:#2ea53a;fill-opacity:1;fill-rule:nonzero;stroke:none"
         id="path52" />
      <path
         d="m 469.172,165.039 0.039,0.117 c -2.297,2.285 -4.602,4.453 -6.875,6.621 l -2.629,-5.937 9.465,-0.801"
         style="fill:#2ea53a;fill-opacity:1;fill-rule:nonzero;stroke:none"
         id="path54" />
      <path
         d="M 257.328,4.34766 C 117.844,4.34766 4.35938,118.145 4.35938,258.008 4.35938,397.883 117.844,511.68 257.328,511.68 396.816,511.68 510.305,397.883 510.305,258.008 510.305,118.145 396.816,4.34766 257.328,4.34766 Z m 0,511.68734 C 115.438,516.035 0,400.293 0,258.008 0,115.742 115.438,0 257.328,0 c 141.891,0 257.328,115.742 257.328,258.008 0,142.285 -115.437,258.027 -257.328,258.027"
         style="fill:#fff200;fill-opacity:1;fill-rule:nonzero;stroke:none"
         id="path56" />
      <path
         d="m 106.43,219.512 c -3.114,0 -5.407,0.617 -6.8636,1.855 -1.457,1.25 -2.3984,2.871 -2.832,4.844 -0.168,0.918 -0.25,3.359 -0.25,7.324 v 56.817 L 122.82,217.5 h 1.203 l 25.836,73.625 v -59.797 c 0,-4.121 -0.191,-6.672 -0.566,-7.637 -0.504,-1.378 -1.172,-2.351 -2.012,-2.921 -1.218,-0.86 -2.824,-1.258 -4.832,-1.258 H 140.23 V 217.5 h 35.61 v 2.012 h -2.207 c -1.918,0 -3.453,0.379 -4.59,1.172 -1.145,0.781 -1.895,1.699 -2.27,2.754 -0.367,1.054 -0.546,3.691 -0.546,7.89 v 52.922 c 0,4.117 0.179,6.668 0.546,7.652 0.512,1.34 1.188,2.297 2.02,2.883 1.207,0.867 2.816,1.278 4.84,1.278 h 2.207 v 2.003 h -27.758 l -18.195,-52.851 -19.051,52.851 H 83.9805 c -0.1524,-0.675 -0.3672,-1.324 -0.5117,-2.003 h 1.6914 c 1.9218,0 3.457,-0.387 4.6054,-1.188 1.1446,-0.805 1.8946,-1.73 2.2813,-2.758 0.3554,-1.043 0.5547,-3.672 0.5547,-7.867 v -50.715 c 0,-3.691 -0.0391,-5.754 -0.0977,-6.199 -0.3867,-1.898 -0.9023,-3.371 -1.582,-4.426 -0.6719,-1.055 -1.668,-1.894 -2.9805,-2.539 -1.332,-0.613 -2.7422,-0.906 -4.25,-0.859 h -0.1133 c 0.1485,-0.684 0.3672,-1.336 0.5196,-2.012 H 106.43 v 2.012"
         style="fill:#fff200;fill-opacity:1;fill-rule:nonzero;stroke:none"
         id="path58" />
      <path
         d="m 208.816,272.742 10.145,-27.781 h -20.645 z m -7.578,-53.23 c -3.543,0.312 -5.75,0.793 -6.66,1.445 -1.535,1.094 -2.308,2.805 -2.308,5.09 0,1.746 0.472,3.953 1.406,6.629 l 2.972,7.871 h 23.915 l 3.66,-10.039 c 0.949,-2.695 1.445,-4.219 1.515,-4.59 0.184,-0.773 0.297,-1.531 0.297,-2.246 0,-1.231 -0.367,-2.18 -1.101,-2.824 -1.079,-0.887 -2.922,-1.336 -5.575,-1.336 h -1.347 V 217.5 h 32.715 v 2.012 c -2.071,0.183 -3.68,0.918 -4.809,2.168 -1.504,1.648 -3.438,5.672 -5.758,12.058 l -24.414,66.145 h -0.945 l -24.328,-64.348 c -2.313,-6.269 -4.239,-10.379 -5.817,-12.371 -1.566,-1.992 -3.562,-3.215 -6.011,-3.652 V 217.5 h 22.593 v 2.012"
         style="fill:#fff200;fill-opacity:1;fill-rule:nonzero;stroke:none"
         id="path60" />
      <path
         d="m 279.246,293.672 h 5.434 c 5.437,0 9.375,-1.477 11.836,-4.387 2.437,-2.906 3.648,-7.422 3.648,-13.515 0,-4.215 -0.66,-7.633 -1.988,-10.243 -1.328,-2.617 -3.164,-4.433 -5.488,-5.429 -2.344,-1.016 -5.84,-1.512 -10.54,-1.512 h -2.902 z m 9.633,-74.16 c -3.195,0 -5.344,0.332 -6.496,1.015 -1.172,0.664 -1.973,1.563 -2.449,2.715 -0.454,1.145 -0.688,3.899 -0.688,8.281 v 22.649 h 4.516 L 305.789,217.5 h 21.231 v 2.195 c -1.793,0.129 -3.36,0.793 -4.715,2.032 -0.887,0.871 -2.395,3.07 -4.492,6.582 l -16.336,27.179 c 4.148,1.231 7.351,3.086 9.668,5.547 3.589,3.887 5.398,8.809 5.398,14.766 0,4.875 -1.199,9.14 -3.613,12.762 -2.422,3.632 -5.535,6.132 -9.367,7.472 -3.829,1.348 -9.864,2.031 -18.102,2.031 H 253.77 v -2.003 c 3.164,0 5.328,-0.333 6.5,-1.024 1.156,-0.664 1.957,-1.57 2.425,-2.715 0.457,-1.133 0.696,-3.906 0.696,-8.293 v -52.508 c 0,-4.382 -0.239,-7.136 -0.696,-8.253 -0.468,-1.114 -1.269,-2.04 -2.402,-2.723 -1.148,-0.695 -3.32,-1.035 -6.523,-1.035 V 217.5 h 35.109 v 2.012"
         style="fill:#fff200;fill-opacity:1;fill-rule:nonzero;stroke:none"
         id="path62" />
      <path
         d="m 353.75,224.531 c -0.266,0.742 -0.398,2.793 -0.398,6.133 v 63.008 c 5.543,0.019 9.507,-0.567 11.89,-1.785 3.403,-1.758 6.176,-5.063 8.321,-9.907 2.738,-6.179 4.105,-14.468 4.105,-24.824 0,-12.871 -1.992,-22.343 -5.996,-28.465 -2.91,-4.531 -7.129,-6.789 -12.688,-6.789 -1.699,0 -2.988,0.317 -3.886,0.891 -0.633,0.398 -1.075,0.984 -1.348,1.738 z m 13.605,-6.308 c 4.586,1.015 8.497,2.48 11.668,4.367 3.196,1.851 6.004,4.375 8.426,7.476 2.446,3.098 4.438,7.043 5.957,11.821 1.535,4.761 2.309,10 2.309,15.664 0,8.191 -1.567,15.535 -4.668,22.039 -3.125,6.496 -7.695,11.348 -13.742,14.551 -4.942,2.617 -11.453,3.925 -19.578,3.925 h -30.356 v -2.003 h 2.246 c 1.914,0 3.442,-0.387 4.571,-1.188 1.132,-0.781 1.867,-1.699 2.25,-2.758 0.371,-1.043 0.542,-3.672 0.542,-7.867 v -52.922 c 0,-4.258 -0.156,-6.785 -0.457,-7.637 -0.5,-1.308 -1.281,-2.324 -2.335,-3.066 -1.051,-0.75 -2.579,-1.113 -4.571,-1.113 h -2.246 V 217.5 h 30.356 c 4.382,0 7.586,0.234 9.628,0.723"
         style="fill:#fff200;fill-opacity:1;fill-rule:nonzero;stroke:none"
         id="path64" />
      <path
         d="m 437.754,219.512 h -2.258 c -1.91,0 -3.418,0.379 -4.539,1.172 -1.113,0.781 -1.863,1.699 -2.246,2.754 -0.391,1.054 -0.574,3.691 -0.574,7.89 v 52.922 c 0,4.117 0.176,6.648 0.547,7.637 0.504,1.367 1.187,2.34 2.058,2.91 1.199,0.855 2.793,1.266 4.754,1.266 h 2.258 v 2.003 h -35.613 v -2.003 h 2.261 c 1.914,0 3.442,-0.387 4.551,-1.188 1.137,-0.781 1.899,-1.699 2.258,-2.758 0.359,-1.043 0.559,-3.672 0.559,-7.867 v -52.922 c 0,-4.121 -0.2,-6.672 -0.559,-7.637 -0.481,-1.378 -1.145,-2.351 -2.023,-2.921 -1.208,-0.86 -2.809,-1.258 -4.786,-1.258 h -2.261 V 217.5 h 35.613 v 2.012"
         style="fill:#fff200;fill-opacity:1;fill-rule:nonzero;stroke:none"
         id="path66" />
      <path
         d="M 442.117,190.703 H 430.918 C 404.133,123.398 338.516,75.7617 261.672,75.7617 184.813,75.7617 119.211,123.398 92.418,190.703 H 76.1953 v 15.75 h 10.7422 c -1.0703,3.637 -1.9922,7.324 -2.8398,11.047 -0.1524,0.676 -0.3711,1.328 -0.5196,2.012 -2.6679,12.422 -4.1562,25.285 -4.1562,38.496 0,13.062 1.4375,25.777 4.0469,38.055 0.1445,0.679 0.3593,1.328 0.5117,2.003 0.8711,3.883 1.8437,7.719 2.957,11.504 H 76.1953 v 15.762 h 16.2266 c 26.7931,67.301 92.3981,114.93 169.2501,114.93 76.844,0 142.449,-47.629 169.246,-114.93 h 11.199 V 309.57 h -5.722 c 4.828,-16.363 7.523,-33.636 7.523,-51.562 0,-17.918 -2.695,-35.195 -7.523,-51.555 h 5.722 z M 260.234,457.93 c -110.41,0 -199.9176,-89.492 -199.9176,-199.922 0,-110.41 89.5076,-199.9103 199.9176,-199.9103 110.403,0 199.934,89.5003 199.934,199.9103 0,110.43 -89.531,199.922 -199.934,199.922"
         style="fill:#fff200;fill-opacity:1;fill-rule:nonzero;stroke:none"
         id="path68" />
      <path
         d="m 442.117,309.57 v 15.762 H 76.1953 V 309.57 h 10.7422 349.4575 5.722"
         style="fill:#fff200;fill-opacity:1;fill-rule:nonzero;stroke:none"
         id="path70" />
      <path
         d="M 86.9375,206.453 H 76.1953 v -15.75 H 442.117 v 15.75 H 436.395 86.9375"
         style="fill:#fff200;fill-opacity:1;fill-rule:nonzero;stroke:none"
         id="path72" />
      <path
         d="m 137.512,80.8477 -10.149,7.2382 -0.843,-1.1718 c 2.335,-2.0313 2.46,-2.4727 0.445,-5.3203 l -9.27,-12.961 c -2.05,-2.8633 -2.535,-2.9023 -5.191,-1.3281 l -0.856,-1.1797 10.137,-7.2695 0.86,1.1953 c -2.336,2.0078 -2.469,2.4687 -0.422,5.3398 l 9.269,12.9571 c 2.028,2.8437 2.508,2.8515 5.156,1.3203 l 0.864,1.1797"
         style="fill:#fff200;fill-opacity:1;fill-rule:nonzero;stroke:none"
         id="path74" />
      <path
         d="m 114.527,84.1016 c 2.446,2.7226 3.84,3.914 4.903,4.8242 1.293,1.2109 2.461,1.0625 4.3,-0.3516 l 0.977,1.0821 -7.594,6.8085 -0.965,-1.0937 c 2.204,-2.1563 2.204,-3.2031 1.133,-4.707 -0.734,-1.0157 -1.789,-2.5118 -4.246,-5.2344 l -6.226,-6.9531 -0.094,0.0703 0.93,26.9411 -1.485,1.36 -11.0233,-12.3167 c -2.4258,-2.7071 -3.914,-4.004 -4.8711,-4.875 -1.4414,-1.2774 -2.4492,-1.1211 -4.1953,0.2929 l -0.9765,-1.0703 7.5546,-6.7891 0.9649,1.1016 c -2.1406,2.1289 -2.3242,3.2422 -1.2735,4.7188 0.7305,0.9687 1.8555,2.5781 4.2852,5.2929 l 4.879,5.4571 0.133,-0.1133 -0.36,-24.1836 5.731,-5.1367 0.976,1.0859 c -1.191,1.2891 -1.679,2.1602 -1.582,3.418 0.047,1.2304 0.524,1.8828 2.332,3.8984 l 5.793,6.4727"
         style="fill:#fff200;fill-opacity:1;fill-rule:nonzero;stroke:none"
         id="path76" />
      <path
         d="m 88.1094,109.609 c -0.7813,3.426 -0.8281,5.821 1.0078,7.442 1.9726,1.719 4.3516,1.66 6.0195,-0.254 2.6289,-3.008 0.7539,-7.91 -0.7187,-10.293 l 1.3047,-0.801 c 1.7226,1.902 4.0039,4.602 4.5273,5.559 -0.195,0.601 -0.457,1.422 -0.9727,2.527 -0.539,1.16 -1.3437,2.402 -2.3203,3.524 -4.0117,4.582 -9.4414,5.175 -13.0156,2.05 -3.0976,-2.703 -2.875,-6.492 -1.6055,-11.172 1.0313,-3.953 1.0235,-5.957 -0.7109,-7.461 -1.7734,-1.5581 -4.2227,-1.4253 -5.7461,0.325 -2.2305,2.558 -0.9375,5.742 0.4649,8.144 l -1.1915,0.821 c -1.7187,-1.934 -2.9023,-3.372 -3.957,-4.493 0.2735,-0.761 1.2149,-3.078 2.9649,-5.089 3.8867,-4.4536 8.9531,-4.8247 12.3906,-1.813 3.0078,2.645 2.7695,6.336 1.5586,10.984"
         style="fill:#fff200;fill-opacity:1;fill-rule:nonzero;stroke:none"
         id="path78" />
      <path
         d="m 71.0703,116.152 c -2.0195,-0.742 -3.4922,-1.093 -4.4453,-0.957 -0.8984,0.137 -1.707,0.481 -3.6562,3.282 l -0.8047,1.152 16.1406,11.238 c 2.9023,2.024 3.3476,1.828 5.5781,-0.879 l 1.1992,0.832 -7.7422,11.133 -1.1875,-0.851 c 1.8438,-3.164 1.879,-3.641 -1.0234,-5.672 l -16.1406,-11.203 -1.086,1.554 c -1.3867,1.985 -1.8007,3.008 -1.5937,4.024 0.1836,1.043 0.9844,2.304 2.4805,3.945 l -0.9336,1.18 c -2.0586,-1.707 -4.9453,-3.953 -6.3516,-4.989 l 0.5703,-0.82 c 1.0391,-0.129 1.5821,-0.461 2.2305,-1.379 l 9.543,-13.719 c 0.6601,-0.957 0.9023,-1.445 0.4921,-2.55 l 0.5782,-0.797 c 1.7812,1.129 4.4218,2.664 6.9922,4.254 l -0.8399,1.222"
         style="fill:#fff200;fill-opacity:1;fill-rule:nonzero;stroke:none"
         id="path80" />
      <path
         d="m 52.5703,141.57 13.9102,7.735 c 3.0547,1.691 3.4883,1.515 5.2461,-1.043 l 1.2695,0.711 -6.0586,10.91 -1.2578,-0.703 c 1.2266,-2.84 1.1562,-3.301 -1.9063,-5 l -13.9101,-7.735 c -3.1016,-1.711 -3.5313,-1.523 -5.2774,1.028 l -1.2773,-0.707 6.0547,-10.918 1.2773,0.715 c -1.2343,2.824 -1.1679,3.3 1.9297,5.007"
         style="fill:#fff200;fill-opacity:1;fill-rule:nonzero;stroke:none"
         id="path82" />
      <path
         d="m 46.4336,156.102 c -2.1289,-0.332 -3.6406,-0.379 -4.5391,-0.047 -0.8593,0.3 -1.582,0.808 -2.914,3.945 l -0.5782,1.301 18.0704,7.742 c 3.2578,1.406 3.6484,1.125 5.2968,-1.973 l 1.3399,0.586 -5.3516,12.449 -1.332,-0.574 c 1.1758,-3.476 1.1094,-3.965 -2.1445,-5.359 l -18.0665,-7.746 -0.7539,1.75 c -0.9453,2.215 -1.1406,3.308 -0.7382,4.246 0.3906,0.996 1.4218,2.082 3.2187,3.371 l -0.6758,1.355 c -2.3593,-1.25 -5.6406,-2.882 -7.2226,-3.601 l 0.3906,-0.918 c 1,-0.344 1.4648,-0.774 1.9062,-1.809 l 6.5899,-15.351 c 0.4609,-1.074 0.5937,-1.614 -0.0234,-2.586 l 0.3906,-0.93 c 1.9844,0.77 4.8672,1.727 7.7304,2.766 l -0.5937,1.383"
         style="fill:#fff200;fill-opacity:1;fill-rule:nonzero;stroke:none"
         id="path84" />
      <path
         d="m 33.5313,184.902 9.4218,2.61 c 4.6797,1.297 7.3594,3.172 8.4883,5.933 0.9883,2.336 0.8477,5.032 0.1211,7.668 -0.7891,2.832 -2.543,5.293 -4.9766,6.602 -3.0273,1.59 -6.5664,1.289 -10.8086,0.117 l -4.3671,-1.223 c -2.8516,-0.781 -4.3711,-1.035 -5.668,-1.171 -1.4688,-0.196 -2.582,0.578 -3.3164,2.746 l -1.4063,-0.391 2.7891,-10.051 1.4023,0.395 c -0.5859,2.754 -0.0546,3.941 1.2891,4.531 1.1523,0.535 2.625,1.16 5.457,1.949 l 4.2735,1.184 c 6.7148,1.855 10.8789,0.762 12.2031,-4.004 1.1914,-4.317 -1.6797,-7.449 -7.6953,-9.113 l -8.6914,-2.411 c -3.7696,-1.046 -4.1524,-0.714 -5.2539,2.129 l -1.3907,-0.39 3.3282,-12.051 1.4062,0.391 c -0.539,3.039 -0.3672,3.527 3.3946,4.55"
         style="fill:#fff200;fill-opacity:1;fill-rule:nonzero;stroke:none"
         id="path86" />
      <path
         d="m 26.9688,215.82 c -2.129,0.274 -3.6055,0.625 -4.3985,1.192 -0.7422,0.515 -1.2969,1.211 -1.7344,4.582 l -0.1875,1.414 19.4922,2.59 c 3.5039,0.465 3.8008,0.093 4.5469,-3.332 l 1.4336,0.207 -1.7852,13.425 -1.4336,-0.207 c 0.1836,-3.648 0,-4.089 -3.5117,-4.566 l -19.4804,-2.609 -0.2696,1.894 c -0.3047,2.403 -0.2109,3.508 0.4414,4.309 0.6485,0.836 1.9219,1.597 4,2.371 l -0.2734,1.473 C 21.1914,238 17.5938,237.313 15.8672,237.051 L 16,236.063 c 0.875,-0.614 1.2031,-1.161 1.3633,-2.262 l 2.1953,-16.567 c 0.1602,-1.148 0.1484,-1.707 -0.707,-2.476 l 0.1328,-0.996 c 2.1054,0.191 5.1523,0.359 8.1836,0.586 l -0.1992,1.472"
         style="fill:#fff200;fill-opacity:1;fill-rule:nonzero;stroke:none"
         id="path88" />
      <path
         d="m 24.5234,270.645 c 5.6133,-0.196 6.5782,-3.567 6.5196,-5.09 -0.0235,-0.875 -0.2774,-1.739 -0.4883,-2.235 l -10.793,0.379 c -0.625,0.024 -1.0508,0.149 -1.289,0.422 -0.1954,0.234 -0.3907,0.742 -0.3633,1.531 0.0859,2.551 1.7265,5.157 6.414,4.993 z m -2.7226,-12.508 15.9101,-0.547 c 3.543,-0.117 3.8204,-0.5 3.9922,-3.637 l 1.4102,-0.035 0.4453,12.906 -1.4141,0.063 c -0.4062,-3.586 -0.7148,-3.938 -4.2382,-3.813 l -5.6954,0.188 0.7579,2.793 c 0.0234,0.461 0.0507,1.14 -0.0079,1.758 -0.4023,4.382 -2.8007,8.593 -8.3632,8.757 -2.6914,0.11 -4.8125,-0.933 -6.2071,-2.84 -1.2265,-1.589 -1.7578,-3.945 -1.875,-7.214 l -0.3867,-11.438 1.4531,-0.039 c 0.4375,2.852 0.6953,3.215 4.2188,3.098"
         style="fill:#fff200;fill-opacity:1;fill-rule:nonzero;stroke:none"
         id="path90" />
      <path
         d="m 23.4336,285.43 15.7891,-2.364 c 3.4882,-0.515 3.6836,-0.976 3.4414,-4.511 l 1.4414,-0.215 3.1367,20.957 c -1.1836,0.516 -4.7969,1.941 -6.6055,2.48 l -0.4961,-1.418 c 1.6875,-1.035 2.8907,-1.968 3.6836,-2.898 0.8633,-1.133 0.9414,-2.656 0.6328,-4.758 -0.2461,-1.57 -0.5312,-2.945 -0.9765,-3.64 -0.5274,-0.762 -1.5821,-0.77 -3.5117,-0.477 l -7.1172,1.07 0.4218,2.746 c 0.5196,3.496 0.7539,3.965 3.8086,4.09 l 0.211,1.496 -8.3008,1.239 -0.2227,-1.485 c 2.793,-1.015 2.9141,-1.57 2.3985,-5.019 l -0.4063,-2.762 -8.7226,1.316 c -1.3438,0.188 -1.4141,0.371 -1.1758,1.899 l 0.293,1.969 c 0.332,2.304 0.7929,3.371 1.6367,3.957 0.8593,0.625 2.3008,0.964 3.7929,1.164 l 0.0157,1.511 c -2.5821,0.203 -5.4805,0.43 -6.2305,0.508 l -2.9063,-19.355 1.4375,-0.227 c 0.6836,2.883 0.9649,3.266 4.5313,2.727"
         style="fill:#fff200;fill-opacity:1;fill-rule:nonzero;stroke:none"
         id="path92" />
      <path
         d="m 25.3359,311.914 c 1.1446,0.488 1.9219,0.352 4.5274,-0.391 l 8.3437,-2.39 c 3.5078,-1.008 5.1993,-1.75 6.4805,-2.297 1.6758,-0.645 2.0391,-1.77 1.5586,-4.043 l 1.4062,-0.391 2.8008,9.786 -1.3945,0.41 c -0.9648,-2.93 -1.9258,-3.399 -3.7305,-3.094 -1.2304,0.223 -3.0586,0.535 -6.5664,1.543 l -8.9922,2.586 0.0352,0.105 24.6601,10.918 0.5508,1.914 -15.8593,4.563 c -3.5118,1.008 -5.3282,1.789 -6.5352,2.258 -1.7773,0.73 -2.0508,1.726 -1.5625,3.914 l -1.3867,0.39 -2.8008,-9.734 1.3945,-0.422 c 1.0039,2.891 1.9141,3.535 3.6914,3.231 1.1875,-0.254 3.1407,-0.555 6.6446,-1.559 l 7.039,-2.004 -0.0508,-0.176 -21.9296,-10.226 -2.1094,-7.391 1.3906,-0.41 c 0.6524,1.641 1.2227,2.469 2.3945,2.91"
         style="fill:#fff200;fill-opacity:1;fill-rule:nonzero;stroke:none"
         id="path94" />
      <path
         d="m 37.9063,344.551 c 5,0.527 8.1718,0.801 10.7148,0.91 0.8828,0.027 1.3242,0 2.2734,-0.422 l 4.2071,-1.863 c 3.4336,-1.528 3.5468,-1.977 2.3789,-5.332 l 1.3047,-0.571 5.4687,12.356 -1.3047,0.574 c -1.7929,-3.25 -2.1523,-3.453 -5.5859,-1.941 l -4.8516,2.16 c -1.1836,0.516 -1.5312,0.848 -2.332,1.844 -2.7344,3.449 -3.9453,5.156 -5.5547,7.558 -1.6484,2.364 -1.9961,3.43 -1.1758,5.957 l -1.3242,0.586 -3.918,-8.808 1.3282,-0.586 c 1.625,2.644 2.1445,2.461 3.3945,1.172 1.918,-1.922 4.625,-5.45 6.2969,-7.508 -3.461,-0.239 -6.9493,-0.52 -10.1524,-0.688 -1.6679,-0.066 -2.1875,0.117 -1.4258,2.766 l -1.3359,0.594 -4.7891,-10.868 1.3243,-0.586 c 1.2265,1.946 1.9296,2.411 5.0586,2.696"
         style="fill:#fff200;fill-opacity:1;fill-rule:nonzero;stroke:none"
         id="path96" />
      <path
         d="m 51.2617,371.23 13.6992,-8.195 c 3.0313,-1.812 3.0313,-2.293 1.4688,-5.484 l 1.2539,-0.746 10.875,18.215 c -0.8945,0.918 -3.6953,3.605 -5.1836,4.765 l -0.9883,-1.086 c 1.1641,-1.621 1.9258,-2.945 2.2969,-4.09 0.3867,-1.386 -0.125,-2.824 -1.2148,-4.648 -0.8204,-1.348 -1.6094,-2.52 -2.2774,-2.988 -0.7851,-0.508 -1.7695,-0.118 -3.4258,0.898 l -6.1836,3.672 1.4258,2.391 c 1.8125,3.039 2.211,3.371 5.0742,2.343 l 0.7657,1.282 -7.2032,4.328 -0.7656,-1.301 c 2.2031,-2 2.1094,-2.559 0.3125,-5.566 l -1.4258,-2.383 -7.5664,4.519 c -1.1719,0.696 -1.1601,0.879 -0.3711,2.207 l 1.0235,1.711 c 1.1953,2 2,2.813 3.0156,3.047 1.0234,0.254 2.4766,0.012 3.9492,-0.371 l 0.5859,1.387 c -2.2968,1.179 -4.8984,2.5 -5.5625,2.84 l -10.0546,-16.805 1.2461,-0.742 c 1.7265,2.402 2.125,2.644 5.2304,0.8"
         style="fill:#fff200;fill-opacity:1;fill-rule:nonzero;stroke:none"
         id="path98" />
      <path
         d="m 65.6602,393.77 12.6718,-9.637 c 2.7813,-2.113 2.7539,-2.617 0.793,-5.676 l 1.1602,-0.879 12.2539,16.113 c -0.6836,0.95 -3.4649,4.153 -4.6485,5.489 l -1.25,-0.879 c 1.1758,-1.906 1.7813,-3.301 2.0039,-4.453 0.2852,-1.485 -0.3984,-2.84 -1.4453,-4.231 -0.7773,-1.023 -1.5351,-1.875 -2.1875,-2.254 -0.832,-0.468 -1.5273,-0.156 -3.0781,1.035 l -12.9102,9.805 c -2.8515,2.18 -2.8125,2.617 -1.1132,5.344 l -1.1485,0.887 -7.7109,-10.129 1.164,-0.875 c 2.1485,2.332 2.586,2.508 5.4454,0.34"
         style="fill:#fff200;fill-opacity:1;fill-rule:nonzero;stroke:none"
         id="path100" />
      <path
         d="m 81.5078,413.398 11.7227,-10.761 c 2.5859,-2.356 2.5468,-2.84 0.6758,-5.293 l 1.0742,-0.977 8.4375,9.18 -1.082,0.976 c -2.293,-2.058 -2.7657,-2.136 -5.3282,0.227 l -11.7383,10.77 c -2.5937,2.371 -2.5625,2.839 -0.6953,5.312 l -1.0781,0.984 -8.4258,-9.187 1.0664,-0.996 c 2.3125,2.082 2.7735,2.168 5.3711,-0.235"
         style="fill:#fff200;fill-opacity:1;fill-rule:nonzero;stroke:none"
         id="path102" />
      <path
         d="m 98.0898,435.352 c 2.1372,1.855 4.3752,2.636 6.8082,2.5 2.637,-0.196 5.633,-1.778 8.215,-4.758 4.867,-5.574 4.992,-11.531 0.778,-15.196 -2.192,-1.914 -3.344,-1.543 -5.313,0.723 L 97.6563,431.16 c -0.7813,0.918 -1.1915,1.496 -1.1563,2.031 0.0352,0.344 0.4648,1.184 1.5898,2.161 z m -3.9726,-8.594 10.4298,-11.985 c 2.316,-2.656 2.195,-3.164 -0.094,-5.535 l 0.957,-1.093 8.067,7.011 c 3.906,3.418 6.433,7.098 7.222,10.879 0.77,3.926 -0.074,7.988 -3.39,11.817 -2.582,2.937 -5.731,4.101 -8.543,4.246 -3.75,0.168 -7.461,-1.707 -11.3832,-5.106 l -9.4375,-8.234 0.961,-1.094 c 2.4218,1.731 2.8671,1.789 5.2109,-0.906"
         style="fill:#fff200;fill-opacity:1;fill-rule:nonzero;stroke:none"
         id="path104" />
      <path
         d="m 120.176,447.996 9.082,-13.066 c 1.98,-2.871 1.851,-3.321 -0.52,-5.332 l 0.852,-1.192 10.238,7.129 -0.844,1.192 c -2.683,-1.532 -3.156,-1.493 -5.152,1.367 l -9.082,13.086 c -2.023,2.902 -1.879,3.351 0.48,5.332 l -0.82,1.211 -10.238,-7.11 0.824,-1.199 c 2.684,1.512 3.164,1.484 5.18,-1.418"
         style="fill:#fff200;fill-opacity:1;fill-rule:nonzero;stroke:none"
         id="path106" />
      <path
         d="m 135.367,458.184 7.613,-13.946 c 1.704,-3.097 1.473,-3.554 -1.011,-5.234 l 0.695,-1.281 10.91,5.949 -0.707,1.277 c -2.949,-1.289 -3.429,-1.199 -5.113,1.895 l -3.578,6.562 c 0.508,0.383 1.105,0.422 2.484,-0.293 4.633,-2.332 9.996,-4.949 12.742,-6.25 l 7.328,4.016 -0.691,1.258 c -1.574,-0.574 -2.898,-0.489 -5.41,0.558 -4.441,1.883 -9.152,4.102 -13.387,6.289 0.707,2.606 1.281,5.204 2.36,8.329 0.996,2.968 2.214,4.269 4.367,5.714 l -0.699,1.289 -9.493,-5.187 0.711,-1.289 0.707,0.254 c 1.825,0.715 2.188,0.246 1.953,-1.395 -0.316,-2.265 -0.796,-4.883 -1.894,-8.664 -0.481,-1.726 -1.078,-2.82 -1.715,-3.457 l -3.394,6.211 c -1.688,3.098 -1.547,3.516 0.91,5.176 l -0.7,1.289 -10.726,-5.867 0.703,-1.282 c 2.871,1.262 3.336,1.165 5.035,-1.921"
         style="fill:#fff200;fill-opacity:1;fill-rule:nonzero;stroke:none"
         id="path108" />
      <path
         d="m 171.695,474.207 6.078,-7.312 -6.078,-2.286 c -0.023,3.125 -0.129,6.297 -0.113,9.539 z m 4.25,-19.824 -0.515,1.359 c -2.957,-0.734 -3.25,-0.207 -3.418,1.856 -0.117,1.726 -0.153,3.32 -0.176,4.687 l 7.457,2.84 c 1.176,-1.367 2.395,-2.781 3.223,-3.809 1.273,-1.464 1.257,-1.992 -0.899,-3.222 l 0.516,-1.356 11.105,4.227 -0.508,1.359 c -2.578,-0.625 -3.277,-0.312 -5.894,2.617 -5.063,5.711 -10.051,11.551 -15.121,17.411 l -1.789,-1.258 -0.371,-23 c -0.039,-3.758 -0.34,-4.375 -2.782,-5.664 l 0.461,-1.367 8.711,3.32"
         style="fill:#fff200;fill-opacity:1;fill-rule:nonzero;stroke:none"
         id="path110" />
      <path
         d="m 192.703,485.684 c 0.973,-0.762 1.235,-1.516 1.828,-4.141 l 1.91,-8.496 c 0.793,-3.567 0.954,-5.391 1.098,-6.789 0.231,-1.766 -0.562,-2.625 -2.793,-3.289 l 0.32,-1.438 9.946,2.246 -0.324,1.418 c -3.043,-0.558 -3.907,0.047 -4.508,1.797 -0.395,1.192 -0.985,2.93 -1.797,6.485 l -2.059,9.148 0.137,0.012 21.41,-16.399 1.942,0.442 -3.622,16.093 c -0.804,3.582 -0.988,5.536 -1.152,6.825 -0.219,1.906 0.512,2.629 2.688,3.234 l -0.321,1.426 -9.894,-2.227 0.32,-1.406 c 2.996,0.496 4,0 4.594,-1.699 0.351,-1.172 1.015,-3 1.82,-6.574 l 1.606,-7.157 -0.172,-0.031 -19.485,14.328 -7.5,-1.679 0.309,-1.426 c 1.75,0.215 2.766,0.086 3.699,-0.703"
         style="fill:#fff200;fill-opacity:1;fill-rule:nonzero;stroke:none"
         id="path112" />
      <path
         d="m 243.988,494.336 c 0.246,0.262 1.114,0.605 2.594,0.664 2.836,0.078 5.059,-0.742 6.859,-2.383 1.914,-1.828 3.207,-4.933 3.336,-8.879 0.211,-7.402 -3.476,-12.09 -9.043,-12.254 -2.921,-0.089 -3.554,0.938 -3.656,3.934 l -0.484,16.613 c -0.031,1.219 0.023,1.914 0.394,2.305 z m -5.925,-3.469 0.468,-15.859 c 0.09,-3.535 -0.316,-3.836 -3.582,-4.227 l 0.039,-1.457 10.672,0.313 c 5.207,0.156 9.477,1.398 12.488,3.82 3.102,2.547 5.028,6.211 4.872,11.297 -0.122,3.887 -1.821,6.797 -3.915,8.691 -2.773,2.5 -6.824,3.41 -12.019,3.254 l -12.512,-0.351 0.039,-1.457 c 2.969,-0.196 3.348,-0.438 3.45,-4.024"
         style="fill:#fff200;fill-opacity:1;fill-rule:nonzero;stroke:none"
         id="path114" />
      <path
         d="m 278.086,488.828 0.129,-0.019 2.144,-9.25 -6.453,0.675 c 1.387,2.813 2.727,5.692 4.18,8.594 z m -4.816,-18.183 c -2.989,0.691 -3.004,1.277 -2.223,3.191 0.664,1.602 1.348,3.047 1.933,4.269 l 7.95,-0.8 c 0.449,-1.758 0.879,-3.575 1.172,-4.856 0.464,-1.875 0.211,-2.363 -2.266,-2.488 l -0.148,-1.445 11.828,-1.211 0.132,1.453 c -2.554,0.597 -3.035,1.191 -4.058,4.972 -1.977,7.391 -3.801,14.852 -5.695,22.352 l -2.176,-0.32 -10.649,-20.391 c -1.715,-3.32 -2.261,-3.73 -5.039,-3.789 l -0.183,-1.437 9.265,-0.957 0.157,1.457"
         style="fill:#fff200;fill-opacity:1;fill-rule:nonzero;stroke:none"
         id="path116" />
      <path
         d="m 303.66,465.957 c -2.945,0.859 -3.433,1.797 -3.199,3.633 0.184,1.238 0.43,3.055 1.297,6.609 l 2.265,9.074 0.125,-0.019 11.782,-24.27 1.929,-0.488 3.989,16.027 c 0.879,3.555 1.597,5.379 2.031,6.602 0.664,1.797 1.641,2.109 3.848,1.688 l 0.347,1.417 -9.851,2.442 -0.34,-1.418 c 2.887,-0.879 3.582,-1.785 3.355,-3.574 -0.215,-1.18 -0.445,-3.133 -1.328,-6.688 l -1.773,-7.09 -0.157,0.028 -11.015,21.554 -7.453,1.844 -0.34,-1.406 c 1.648,-0.586 2.5,-1.141 2.984,-2.274 0.532,-1.132 0.41,-1.906 -0.23,-4.543 l -2.102,-8.425 c -0.886,-3.547 -1.57,-5.274 -2.058,-6.543 -0.598,-1.711 -1.68,-2.121 -3.977,-1.719 l -0.344,-1.426 9.868,-2.441 0.347,1.406"
         style="fill:#fff200;fill-opacity:1;fill-rule:nonzero;stroke:none"
         id="path118" />
      <path
         d="m 344.773,451.961 c -2.781,1.613 -2.996,2.031 -1.519,5.234 l 3.141,6.789 c 0.597,-0.175 0.976,-0.625 1.234,-2.16 0.879,-5.125 1.973,-10.976 2.574,-13.965 l 7.59,-3.496 0.613,1.321 c -1.402,0.925 -2.129,2.019 -2.801,4.675 -1.125,4.688 -2.175,9.778 -2.917,14.473 2.515,1.008 4.941,2.09 8.105,3.086 2.945,0.977 4.734,0.754 7.176,-0.105 l 0.617,1.328 -9.824,4.531 -0.598,-1.328 0.637,-0.422 c 1.66,-1.043 1.48,-1.609 0.015,-2.41 -2.007,-1.074 -4.382,-2.278 -8.086,-3.633 -1.66,-0.645 -2.886,-0.82 -3.789,-0.676 l 2.961,6.406 c 1.477,3.223 1.907,3.332 4.7,2.375 l 0.625,1.329 -11.106,5.117 -0.613,-1.328 c 2.715,-1.582 2.93,-1.993 1.441,-5.207 l -6.636,-14.403 c -1.489,-3.215 -1.973,-3.301 -4.829,-2.324 l -0.601,-1.32 11.277,-5.203 0.613,1.316"
         style="fill:#fff200;fill-opacity:1;fill-rule:nonzero;stroke:none"
         id="path120" />
      <path
         d="m 373.621,459.656 -8.453,-13.543 c -1.875,-2.988 -2.363,-2.988 -5.512,-1.367 l -0.777,-1.23 17.984,-11.231 c 0.942,0.887 3.672,3.621 4.907,5.078 l -1.086,1.004 c -1.653,-1.133 -2.996,-1.844 -4.141,-2.207 -1.398,-0.351 -2.82,0.195 -4.617,1.32 -1.352,0.829 -2.492,1.649 -2.949,2.325 -0.493,0.8 -0.082,1.765 0.964,3.437 l 3.809,6.082 2.363,-1.472 c 2.981,-1.868 3.321,-2.286 2.227,-5.118 l 1.262,-0.793 4.453,7.11 -1.25,0.812 c -2.051,-2.168 -2.617,-2.062 -5.571,-0.215 l -2.363,1.465 4.672,7.5 c 0.723,1.153 0.906,1.121 2.227,0.313 l 1.675,-1.047 c 1.977,-1.238 2.778,-2.078 2.973,-3.074 0.254,-1.035 -0.023,-2.492 -0.441,-3.938 l 1.367,-0.633 c 1.242,2.286 2.605,4.864 2.961,5.508 l -16.614,10.379 -0.753,-1.23 c 2.355,-1.786 2.609,-2.168 0.683,-5.235"
         style="fill:#fff200;fill-opacity:1;fill-rule:nonzero;stroke:none"
         id="path122" />
      <path
         d="m 390.105,437.324 c -3.003,-3.105 -4.667,-4.543 -5.703,-5.39 -1.14,-0.957 -2.222,-1.028 -4.136,0.312 l -0.942,-1.094 7.617,-6.437 0.942,1.094 c -1.938,1.972 -2.324,2.785 -1.25,4.328 0.711,1.093 1.972,2.597 4.312,5.117 l 7.395,7.957 0.137,-0.106 -7.215,-21.66 0.894,-0.773 20.957,10.605 0.168,-0.136 -10.261,-12.274 c -2.446,-2.949 -2.825,-3.008 -5.422,-1.262 l -0.938,-1.101 9.403,-7.957 0.929,1.121 c -2.258,2.344 -2.226,2.695 0.188,5.676 l 9.746,12.117 c 2.156,2.684 2.5,2.832 5.254,0.945 l 0.945,1.106 -6.379,5.39 -17.984,-8.652 5.64,19.102 -6.582,5.546 -0.945,-1.113 c 2.527,-2.558 2.363,-3.183 -0.945,-6.594 l -5.825,-5.867"
         style="fill:#fff200;fill-opacity:1;fill-rule:nonzero;stroke:none"
         id="path124" />
      <path
         d="m 430.32,410.977 0.078,-0.098 -4.753,-8.203 -4.25,4.89 c 2.941,1.114 5.89,2.297 8.925,3.411 z m -22.027,-2.95 -1.137,-0.929 6.114,-7.032 1.093,0.957 c -1.718,2.532 -1.328,2.969 0.571,3.84 1.582,0.735 3.062,1.289 4.343,1.785 l 5.227,-6.011 c -0.883,-1.594 -1.801,-3.207 -2.461,-4.348 -0.949,-1.691 -1.445,-1.875 -3.344,-0.254 l -1.109,-0.957 7.793,-8.984 1.109,0.957 c -1.465,2.199 -1.414,2.961 0.41,6.418 3.645,6.726 7.414,13.426 11.157,20.203 l -1.797,1.238 -21.719,-7.566 c -3.535,-1.25 -4.199,-1.172 -6.25,0.683"
         style="fill:#fff200;fill-opacity:1;fill-rule:nonzero;stroke:none"
         id="path126" />
      <path
         d="m 445.828,393.801 -11.094,-7.805 c -2.554,-1.785 -4.773,-3.262 -6.89,-4.297 -2.383,-1.144 -4.297,-0.969 -6.36,0.321 l -0.886,-1.407 c 1.277,-1.121 2.886,-2.117 5.007,-2.652 4.793,-1.32 8.25,0.613 12.2,3.387 l 11.226,7.89 c 2.895,2.039 3.34,1.895 5.254,-0.312 l 1.195,0.82 -7.152,10.176 -1.187,-0.852 c 1.582,-2.73 1.582,-3.242 -1.313,-5.269"
         style="fill:#fff200;fill-opacity:1;fill-rule:nonzero;stroke:none"
         id="path128" />
      <path
         d="m 455.242,379.324 -8.543,-4.734 c -4.25,-2.356 -6.418,-4.785 -6.886,-7.735 -0.418,-2.519 0.355,-5.097 1.679,-7.492 1.43,-2.578 3.696,-4.566 6.367,-5.254 3.325,-0.839 6.692,0.266 10.547,2.407 l 3.965,2.175 c 2.59,1.426 4.008,2.032 5.234,2.469 1.387,0.52 2.637,0.039 3.872,-1.902 l 1.265,0.715 -5.047,9.109 -1.257,-0.691 c 1.207,-2.551 0.957,-3.832 -0.215,-4.711 -0.989,-0.789 -2.27,-1.746 -4.868,-3.172 l -3.882,-2.141 c -6.078,-3.347 -10.395,-3.277 -12.785,1.059 -2.168,3.933 -0.086,7.633 5.378,10.652 l 7.895,4.363 c 3.394,1.887 3.863,1.672 5.586,-0.847 l 1.266,0.711 -6.036,10.937 -1.289,-0.699 c 1.242,-2.844 1.184,-3.344 -2.246,-5.219"
         style="fill:#fff200;fill-opacity:1;fill-rule:nonzero;stroke:none"
         id="path130" />
      <path
         d="m 471.277,344.773 0.051,-0.105 -7.195,-6.172 -2.403,6.016 c 3.133,0.078 6.305,0.234 9.547,0.261 z m -21.773,4.485 -1.379,-0.481 3.438,-8.66 1.359,0.547 c -0.781,2.961 -0.266,3.254 1.797,3.43 1.734,0.164 3.316,0.203 4.683,0.261 l 2.953,-7.421 c -1.347,-1.211 -2.746,-2.422 -3.75,-3.274 -1.449,-1.297 -1.996,-1.277 -3.234,0.852 l -1.348,-0.539 4.383,-11.043 1.352,0.539 c -0.664,2.547 -0.356,3.242 2.515,5.918 5.649,5.156 11.418,10.222 17.2,15.379 l -1.282,1.765 -23.003,0.039 c -3.75,-0.015 -4.36,0.278 -5.684,2.688"
         style="fill:#fff200;fill-opacity:1;fill-rule:nonzero;stroke:none"
         id="path132" />
      <path
         d="m 470.535,319.91 c -3.555,-0.847 -5.39,-1.043 -6.758,-1.211 -1.785,-0.242 -2.656,0.528 -3.355,2.754 l -1.418,-0.328 2.383,-9.914 1.418,0.344 c -0.598,3.023 0,3.894 1.738,4.519 1.172,0.41 2.891,1.035 6.465,1.887 l 9.097,2.195 0.024,-0.129 -16.098,-21.636 0.473,-1.946 16.062,3.848 c 3.543,0.859 5.52,1.074 6.789,1.262 1.903,0.242 2.633,-0.481 3.282,-2.637 l 1.406,0.332 -2.363,9.871 -1.418,-0.351 c 0.554,-2.977 0.066,-3.997 -1.621,-4.61 -1.153,-0.371 -2.996,-1.074 -6.551,-1.926 l -7.11,-1.699 -0.05,0.156 14.05,19.707 -1.804,7.473 -1.414,-0.332 c 0.23,-1.738 0.144,-2.754 -0.649,-3.711 -0.75,-0.996 -1.504,-1.262 -4.121,-1.902 l -8.457,-2.016"
         style="fill:#fff200;fill-opacity:1;fill-rule:nonzero;stroke:none"
         id="path134" />
      <path
         d="m 493.191,271.609 c 0.161,-2.527 -1.218,-5.281 -5.918,-5.554 -5.601,-0.325 -6.875,2.937 -6.968,4.461 -0.039,0.879 0.117,1.757 0.293,2.257 l 10.781,0.645 c 0.633,0.039 1.055,-0.059 1.309,-0.305 0.234,-0.222 0.457,-0.711 0.503,-1.504 z m -4.375,7.161 -15.894,-0.938 c -3.52,-0.203 -3.828,0.156 -4.301,3.242 l -1.414,-0.09 0.754,-12.886 1.414,0.066 c 0.09,3.586 0.344,3.977 3.879,4.18 l 5.684,0.332 -0.493,-2.852 c 0.024,-0.449 0.063,-1.125 0.188,-1.726 0.781,-4.336 3.555,-8.293 9.109,-7.961 2.719,0.156 4.731,1.394 5.918,3.418 1.086,1.699 1.391,4.082 1.211,7.363 l -0.683,11.395 -1.446,-0.067 c -0.176,-2.883 -0.387,-3.262 -3.926,-3.476"
         style="fill:#fff200;fill-opacity:1;fill-rule:nonzero;stroke:none"
         id="path136" />
      <path
         d="m 493.992,254.57 c -0.406,-2.929 -0.64,-3.34 -4.265,-3.136 l -15.926,0.879 c -3.528,0.199 -3.75,0.617 -3.852,4.179 l -1.453,0.063 -1.16,-21.172 c 1.227,-0.383 4.949,-1.465 6.812,-1.82 l 0.364,1.449 c -1.785,0.886 -3.074,1.699 -3.938,2.539 -0.984,1.051 -1.199,2.566 -1.082,4.668 0.086,1.59 0.266,2.984 0.625,3.719 0.457,0.812 1.516,0.917 3.446,0.812 l 7.191,-0.402 -0.141,-2.785 c -0.191,-3.524 -0.41,-4.004 -3.425,-4.422 l -0.071,-1.496 8.379,-0.457 0.078,1.484 c -2.871,0.742 -3.047,1.301 -2.847,4.773 l 0.156,2.785 8.789,-0.476 c 1.363,-0.078 1.433,-0.254 1.348,-1.781 l -0.098,-2 c -0.141,-2.305 -0.481,-3.418 -1.274,-4.102 -0.781,-0.683 -2.183,-1.16 -3.652,-1.492 l 0.117,-1.504 c 2.59,0.027 5.5,0.066 6.25,0.066 l 1.075,19.551 -1.446,0.078"
         style="fill:#fff200;fill-opacity:1;fill-rule:nonzero;stroke:none"
         id="path138" />
      <path
         d="m 490.027,216.355 c -0.41,-2.285 -2.461,-4.539 -6.785,-3.765 -2.082,0.379 -3.625,1.238 -4.519,2.84 -0.657,1.043 -0.703,2.48 -0.395,4.199 l 0.195,1.055 9.985,-1.778 c 0.879,-0.156 1.265,-0.312 1.441,-0.625 0.207,-0.293 0.278,-0.898 0.078,-1.926 z m -2.41,8.235 -15.715,2.812 c -3.339,0.598 -3.687,1.121 -3.418,4.246 l -1.441,0.247 -2.188,-12.344 1.422,-0.254 c 0.84,3.016 1.328,3.34 4.68,2.754 l 5.969,-1.074 -0.149,-0.782 c -0.261,-1.3 -0.886,-1.941 -2.265,-2.375 -2.332,-0.808 -4.754,-1.511 -6.621,-2.273 -2.879,-1.192 -4.297,-2.578 -5.481,-7.688 -0.074,-0.496 -0.203,-0.972 -0.254,-1.218 l 1.262,-0.489 c 0.508,0.891 1.113,1.453 2.219,2.176 1.011,0.688 2.468,1.313 4.988,2.363 2.078,0.864 5.105,1.926 6.395,2.286 0.668,-2.95 2.16,-5.664 5.746,-6.297 2.554,-0.45 4.589,0.363 5.957,1.797 1.422,1.445 2.215,3.457 2.847,7.023 l 2.051,11.492 -1.441,0.254 c -0.801,-2.949 -1.289,-3.23 -4.563,-2.656"
         style="fill:#fff200;fill-opacity:1;fill-rule:nonzero;stroke:none"
         id="path140" />
      <path
         d="m 480.945,199.102 c 1.821,-1.125 3.032,-2.051 3.52,-2.903 0.43,-0.777 0.64,-1.64 -0.344,-4.89 l -0.422,-1.36 -18.789,5.793 c -3.379,1.043 -3.492,1.504 -2.754,4.942 l -1.386,0.429 -3.985,-12.961 1.391,-0.429 c 1.344,3.41 1.719,3.742 5.094,2.687 l 18.793,-5.781 -0.571,-1.836 c -0.711,-2.285 -1.265,-3.262 -2.183,-3.711 -0.95,-0.508 -2.422,-0.637 -4.629,-0.488 l -0.371,-1.446 c 2.593,-0.585 6.171,-1.472 7.847,-1.953 l 0.285,0.957 c -0.539,0.907 -0.617,1.532 -0.273,2.618 l 4.922,15.957 c 0.344,1.121 0.578,1.613 1.687,1.972 l 0.293,0.946 c -2,0.703 -4.832,1.828 -7.664,2.89 l -0.461,-1.433"
         style="fill:#fff200;fill-opacity:1;fill-rule:nonzero;stroke:none"
         id="path142" />
      <path
         d="m 469.211,165.156 -0.039,-0.117 -9.465,0.801 2.629,5.937 c 2.273,-2.168 4.578,-4.336 6.875,-6.621 z m -12.055,18.672 -1.316,0.637 -3.762,-8.527 1.34,-0.586 c 1.57,2.625 2.141,2.48 3.711,1.132 1.34,-1.132 2.473,-2.226 3.476,-3.164 l -3.21,-7.297 c -1.821,0.118 -3.672,0.247 -4.985,0.372 -1.941,0.128 -2.32,0.531 -1.68,2.921 l -1.316,0.586 -4.797,-10.886 1.328,-0.586 c 1.352,2.261 2.082,2.547 5.981,2.351 7.644,-0.41 15.308,-0.976 23.023,-1.476 l 0.371,2.16 -16.109,16.426 c -2.641,2.664 -2.856,3.3 -2.055,5.937"
         style="fill:#fff200;fill-opacity:1;fill-rule:nonzero;stroke:none"
         id="path144" />
      <path
         d="m 462.578,142.031 c -1.238,-0.168 -1.941,0.188 -4.25,1.61 l -7.371,4.601 c -3.098,1.934 -4.519,3.113 -5.598,3.977 -1.421,1.101 -1.48,2.254 -0.386,4.324 l -1.243,0.762 -5.378,-8.645 1.226,-0.777 c 1.738,2.547 2.777,2.742 4.438,1.941 1.129,-0.558 2.793,-1.34 5.879,-3.269 l 7.957,-4.961 -0.071,-0.102 -26.695,-3.726 -1.074,-1.692 14.004,-8.73 c 3.101,-1.922 4.629,-3.184 5.652,-3.965 1.516,-1.191 1.516,-2.207 0.422,-4.191 l 1.238,-0.77 5.371,8.613 -1.23,0.762 c -1.746,-2.488 -2.813,-2.852 -4.434,-2.078 -1.074,0.574 -2.859,1.383 -5.969,3.328 l -6.211,3.867 0.098,0.145 23.891,3.82 4.058,6.523 -1.226,0.762 c -1.067,-1.394 -1.867,-2.019 -3.098,-2.129"
         style="fill:#fff200;fill-opacity:1;fill-rule:nonzero;stroke:none"
         id="path146" />
      <path
         d="m 441.316,114.98 -12.5,9.856 c -2.753,2.156 -2.753,2.644 -1.074,5.242 l -1.133,0.891 -7.714,-9.789 1.132,-0.907 c 2.129,2.239 2.578,2.356 5.344,0.188 l 12.488,-9.856 c 2.786,-2.187 2.778,-2.667 1.118,-5.261 l 1.14,-0.903 7.727,9.786 -1.156,0.918 c -2.125,-2.247 -2.594,-2.352 -5.372,-0.165"
         style="fill:#fff200;fill-opacity:1;fill-rule:nonzero;stroke:none"
         id="path148" />
      <path
         d="m 424.316,97.2969 -0.078,-0.0781 -8.613,4.0112 4.52,4.668 c 1.371,-2.832 2.793,-5.644 4.171,-8.6011 z m -4.902,21.7071 -1.008,1.035 -6.465,-6.711 1.047,-1.015 c 2.371,1.937 2.852,1.593 3.887,-0.204 0.852,-1.523 1.555,-2.961 2.156,-4.179 l -5.523,-5.735 c -1.66,0.727 -3.363,1.496 -4.555,2.063 -1.773,0.781 -1.98,1.277 -0.555,3.308 l -1.043,0.997 -8.253,-8.543 1.043,-1.0161 c 2.074,1.6481 2.824,1.6721 6.449,0.1445 7.027,-3.0156 14.004,-6.1796 21.094,-9.3242 l 1.074,1.9141 -9.453,20.9647 c -1.567,3.399 -1.543,4.094 0.105,6.301"
         style="fill:#fff200;fill-opacity:1;fill-rule:nonzero;stroke:none"
         id="path150" />
      <path
         d="m 410.145,77.8828 c -1.219,0.2695 -1.778,0.8399 -3.434,2.9766 l -5.332,6.8554 c -2.27,2.8711 -3.203,4.4649 -3.899,5.6446 -0.964,1.5156 -0.632,2.625 1.106,4.1914 l -0.898,1.1484 -8.032,-6.2695 0.903,-1.1524 c 2.5,1.7969 3.535,1.6211 4.832,0.3047 0.871,-0.9179 2.16,-2.2187 4.406,-5.1172 l 5.762,-7.3554 -0.098,-0.086 -26.379,5.6719 -1.57,-1.2187 10.156,-13.0078 c 2.254,-2.9024 3.262,-4.5782 3.965,-5.6719 1.004,-1.6328 0.652,-2.6094 -1.047,-4.0742 l 0.898,-1.1641 7.996,6.2617 -0.894,1.1524 c -2.5,-1.75 -3.613,-1.7383 -4.887,-0.4493 -0.808,0.8985 -2.207,2.2852 -4.453,5.1758 l -4.5,5.7735 0.109,0.0859 23.75,-4.5977 6.075,4.7227 -0.891,1.1445 c -1.476,-0.9453 -2.441,-1.2695 -3.644,-0.9453"
         style="fill:#fff200;fill-opacity:1;fill-rule:nonzero;stroke:none"
         id="path152" />
      <path
         d="m 190.691,53.0742 0.524,1.3516 -7.781,3.0234 -14.176,-14.0312 -0.903,19.875 -8.039,3.0859 -0.519,-1.3594 c 3.211,-1.582 3.273,-2.2382 1.258,-6.5351 l -3.594,-7.4375 c -1.824,-3.9297 -2.914,-5.8321 -3.637,-6.9844 -0.758,-1.2578 -1.758,-1.6719 -4,-1.0352 l -0.531,-1.3476 9.305,-3.5938 0.523,1.3477 c -2.465,1.2305 -3.09,1.875 -2.594,3.6719 0.325,1.2695 1.016,3.0937 2.422,6.25 l 4.387,9.9414 0.156,-0.0586 0.246,-22.8438 1.098,-0.4179 16.363,16.8437 0.192,-0.0781 -5.692,-14.9492 c -1.347,-3.5742 -1.683,-3.7617 -4.719,-2.9492 l -0.511,-1.3477 11.469,-4.4531 0.523,1.3672 c -2.906,1.4765 -2.992,1.8242 -1.684,5.4296 l 5.258,14.6211 c 1.168,3.25 1.438,3.5039 4.656,2.6133"
         style="fill:#fff200;fill-opacity:1;fill-rule:nonzero;stroke:none"
         id="path154" />
      <path
         d="m 198.762,36.4648 c 1.699,2.6446 3.343,5.3516 5.148,8.0547 l 0.113,-0.0156 1.071,-9.4453 z m 12.824,-8.0195 c -1.09,7.5625 -2.051,15.1797 -3.078,22.8438 L 206.316,51.2305 193.402,32.207 c -2.101,-3.1132 -2.687,-3.4687 -5.429,-3.1914 l -0.356,-1.4258 9.086,-1.9921 0.324,1.414 c -2.894,1.0235 -2.843,1.6133 -1.851,3.4375 0.855,1.5039 1.699,2.8516 2.426,4.0156 l 7.793,-1.7109 c 0.234,-1.8086 0.48,-3.6445 0.613,-4.9609 0.254,-1.9141 -0.051,-2.3633 -2.531,-2.1953 l -0.317,-1.418 11.613,-2.5703 0.309,1.4258 c -2.488,0.8906 -2.898,1.5429 -3.496,5.4101"
         style="fill:#fff200;fill-opacity:1;fill-rule:nonzero;stroke:none"
         id="path156" />
      <path
         d="m 238.105,22.4805 c -1.093,-1.0157 -2.609,-1.1719 -4.355,-0.9961 -1.273,0.1094 -2.395,0.3125 -3.07,0.6719 -0.821,0.4414 -0.91,1.2109 -0.742,3.164 l 1.566,16.125 c 0.332,3.5742 0.73,3.7695 3.945,3.7695 l 0.149,1.4454 -12.668,1.2109 -0.141,-1.4453 c 3.113,-0.5977 3.512,-0.8789 3.164,-4.4453 l -1.519,-15.8477 c -0.336,-3.4765 -0.778,-3.7226 -4.399,-3.6719 l -0.148,-1.4531 20.152,-1.9258 c 0.445,1.0743 1.703,5.1368 2.207,6.8477 l -1.41,0.6016 c -0.973,-2.0118 -1.852,-3.25 -2.731,-4.0508"
         style="fill:#fff200;fill-opacity:1;fill-rule:nonzero;stroke:none"
         id="path158" />
      <path
         d="m 255.496,29.9023 c 0.984,2.9883 1.953,6.004 3.027,9.0821 h 0.125 l 3.317,-8.8867 z m 14.399,-4.6601 c -2.915,7.082 -5.684,14.2383 -8.555,21.4297 l -2.102,-0.5977 -7.906,-21.6015 c -1.266,-3.5352 -1.766,-4.0039 -4.496,-4.4141 v -1.4453 l 9.316,0.2539 -0.047,1.4453 c -3.054,0.3008 -3.144,0.8867 -2.628,2.8789 0.461,1.6836 0.961,3.1953 1.386,4.5039 l 7.957,0.2344 c 0.676,-1.707 1.352,-3.4258 1.821,-4.6602 0.703,-1.8047 0.515,-2.3125 -1.926,-2.7539 l 0.051,-1.4531 11.875,0.332 -0.051,1.4649 c -2.625,0.2422 -3.176,0.7812 -4.695,4.3828"
         style="fill:#fff200;fill-opacity:1;fill-rule:nonzero;stroke:none"
         id="path160" />
      <path
         d="m 293.809,44.4141 c 1.132,2.6289 1.855,3.4961 4.445,4.1718 l -0.207,1.4258 -9.539,-1.3711 0.191,-1.4218 c 3.125,0.0156 3.242,-0.5196 2.817,-2.2579 -0.637,-2.6484 -2.168,-6.8086 -3.039,-9.3476 -2.039,2.832 -4.122,5.6484 -5.965,8.2812 -0.949,1.3711 -1.074,1.8985 1.59,2.6485 L 283.895,48 272.117,46.3008 272.324,44.875 c 2.317,0 3.074,-0.3633 4.981,-2.8633 3.105,-3.9648 5.008,-6.5039 6.445,-8.6133 0.496,-0.7304 0.715,-1.125 0.852,-2.1484 l 0.652,-4.5625 c 0.535,-3.7109 0.207,-4.0508 -3.25,-4.8398 l 0.203,-1.3985 13.359,1.9258 -0.183,1.3945 c -3.735,-0.207 -4.082,0 -4.602,3.711 l -0.769,5.2617 c -0.168,1.2734 -0.078,1.7695 0.347,2.9414 1.465,4.1602 2.27,6.082 3.45,8.7305"
         style="fill:#fff200;fill-opacity:1;fill-rule:nonzero;stroke:none"
         id="path162" />
      <path
         d="m 311.809,42.6953 c -4.004,0.8789 -5.762,1.8086 -6.329,4.0156 -0.585,2.3047 0.641,4.4024 2.887,4.961 3.321,0.8476 5.571,-1.7617 7.031,-4.0821 l 1.313,0.6641 c -0.969,2.4219 -1.684,4.1289 -2.231,5.5742 -0.796,0.0977 -3.289,0.3203 -5.859,-0.3203 -5.738,-1.4375 -8.379,-5.793 -7.242,-10.2265 0.965,-3.879 4.391,-5.3321 9.059,-6.379 3.417,-0.8554 5.578,-1.8906 6.171,-4.2656 0.649,-2.5586 -0.504,-4.6289 -2.957,-5.2539 -3.867,-0.9765 -7.375,2.9375 -8.847,5.3125 l -1.297,-0.793 c 0.894,-2.3906 2.281,-5.6406 2.906,-6.5703 0.606,-0.0898 1.469,-0.2265 2.668,-0.2539 1.309,-0.0508 2.766,0.0977 4.219,0.4492 5.887,1.4844 8.894,6.0665 7.746,10.6446 -1.02,4.0234 -4.477,5.539 -9.238,6.5234"
         style="fill:#fff200;fill-opacity:1;fill-rule:nonzero;stroke:none"
         id="path164" />
      <path
         d="m 334.48,38.3086 -5.171,15.0703 c -1.157,3.3477 -0.879,3.7305 1.914,5.0117 l -0.461,1.375 -11.809,-4.0508 0.488,-1.3671 c 3,0.7109 3.45,0.5546 4.59,-2.7852 l 5.18,-15.0586 c 1.133,-3.3008 0.879,-3.6914 -1.938,-4.9726 l 0.481,-1.375 11.777,4.0625 -0.461,1.3671 c -3.015,-0.7226 -3.457,-0.5664 -4.59,2.7227"
         style="fill:#fff200;fill-opacity:1;fill-rule:nonzero;stroke:none"
         id="path166" />
      <path
         d="m 346.73,49.043 c -0.246,3.125 -0.546,6.2773 -0.746,9.5312 l 0.121,0.0508 6.524,-6.8867 z m 15.079,1.3164 C 356.379,55.7305 351.016,61.25 345.574,66.75 l -1.695,-1.3789 1.133,-22.9688 c 0.215,-3.75 -0.063,-4.3554 -2.422,-5.8085 l 0.586,-1.3516 8.457,3.8906 -0.61,1.3164 c -2.91,-0.9297 -3.23,-0.4375 -3.523,1.6211 -0.242,1.7188 -0.371,3.3125 -0.496,4.668 l 7.242,3.3203 c 1.289,-1.2969 2.59,-2.6289 3.481,-3.5664 1.367,-1.3945 1.382,-1.9336 -0.696,-3.3008 l 0.606,-1.3164 10.82,4.9492 -0.598,1.3203 c -2.539,-0.7812 -3.25,-0.539 -6.05,2.2149"
         style="fill:#fff200;fill-opacity:1;fill-rule:nonzero;stroke:none"
         id="path168" />
      <path
         d="m 141.008,67.8906 c -3.559,0 -6.445,-2.8906 -6.445,-6.4375 0,-3.5625 2.886,-6.4531 6.445,-6.4531 3.562,0 6.433,2.8906 6.433,6.4531 0,3.5469 -2.871,6.4375 -6.433,6.4375"
         style="fill:#fff200;fill-opacity:1;fill-rule:nonzero;stroke:none"
         id="path170" />
      <path
         d="m 372.305,70.7539 c -3.567,0 -6.438,-2.8711 -6.438,-6.4375 0,-3.5625 2.871,-6.4336 6.438,-6.4336 3.554,0 6.457,2.8711 6.457,6.4336 0,3.5664 -2.903,6.4375 -6.457,6.4375"
         style="fill:#fff200;fill-opacity:1;fill-rule:nonzero;stroke:none"
         id="path172" />
    </g>
  </g>
</svg>
